<?xml version="1.0" encoding="utf-8" standalone="no"?>
<!DOCTYPE svg PUBLIC "-//W3C//DTD SVG 1.1//EN"
  "http://www.w3.org/Graphics/SVG/1.1/DTD/svg11.dtd">
<!-- Created with matplotlib (http://matplotlib.org/) -->
<svg height="864pt" version="1.1" viewBox="0 0 1296 864" width="1296pt" xmlns="http://www.w3.org/2000/svg" xmlns:xlink="http://www.w3.org/1999/xlink">
 <defs>
  <style type="text/css">
*{stroke-linecap:butt;stroke-linejoin:round;}
  </style>
 </defs>
 <g id="figure_1">
  <g id="patch_1">
   <path d="
M0 864
L1296 864
L1296 0
L0 0
z
" style="fill:#ffffff;"/>
  </g>
  <g id="axes_1">
   <g id="patch_2">
    <path d="
M162 756
L1166.4 756
L1166.4 86.4
L162 86.4
z
" style="fill:#ffffff;"/>
   </g>
   <g id="matplotlib.axis_1">
    <g id="xtick_1">
     <g id="line2d_1">
      <path clip-path="url(#p26a8256953)" d="
M262.44 756
L262.44 86.4" style="fill:none;stroke:#cccccc;stroke-linecap:round;"/>
     </g>
     <g id="line2d_2">
      <defs>
       <path d="
M0 0
L0 0" id="m219da94a98" style="stroke:#262626;"/>
      </defs>
      <g>
       <use style="fill:#262626;stroke:#262626;" x="262.44" xlink:href="#m219da94a98" y="756.0"/>
      </g>
     </g>
     <g id="line2d_3">
      <g>
       <use style="fill:#262626;stroke:#262626;" x="262.44" xlink:href="#m219da94a98" y="86.4"/>
      </g>
     </g>
     <g id="text_1">
      <!-- 1 -->
      <defs>
       <path d="
M12.4062 8.29688
L28.5156 8.29688
L28.5156 63.9219
L10.9844 60.4062
L10.9844 69.3906
L28.4219 72.9062
L38.2812 72.9062
L38.2812 8.29688
L54.3906 8.29688
L54.3906 0
L12.4062 0
z
" id="BitstreamVeraSans-Roman-31"/>
      </defs>
      <g style="fill:#262626;" transform="translate(258.9675 775.1575)scale(0.16 -0.16)">
       <use xlink:href="#BitstreamVeraSans-Roman-31"/>
      </g>
     </g>
    </g>
    <g id="xtick_2">
     <g id="line2d_4">
      <path clip-path="url(#p26a8256953)" d="
M463.32 756
L463.32 86.4" style="fill:none;stroke:#cccccc;stroke-linecap:round;"/>
     </g>
     <g id="line2d_5">
      <g>
       <use style="fill:#262626;stroke:#262626;" x="463.32" xlink:href="#m219da94a98" y="756.0"/>
      </g>
     </g>
     <g id="line2d_6">
      <g>
       <use style="fill:#262626;stroke:#262626;" x="463.32" xlink:href="#m219da94a98" y="86.4"/>
      </g>
     </g>
     <g id="text_2">
      <!-- 2 -->
      <defs>
       <path d="
M19.1875 8.29688
L53.6094 8.29688
L53.6094 0
L7.32812 0
L7.32812 8.29688
Q12.9375 14.1094 22.625 23.8906
Q32.3281 33.6875 34.8125 36.5312
Q39.5469 41.8438 41.4219 45.5312
Q43.3125 49.2188 43.3125 52.7812
Q43.3125 58.5938 39.2344 62.25
Q35.1562 65.9219 28.6094 65.9219
Q23.9688 65.9219 18.8125 64.3125
Q13.6719 62.7031 7.8125 59.4219
L7.8125 69.3906
Q13.7656 71.7812 18.9375 73
Q24.125 74.2188 28.4219 74.2188
Q39.75 74.2188 46.4844 68.5469
Q53.2188 62.8906 53.2188 53.4219
Q53.2188 48.9219 51.5312 44.8906
Q49.8594 40.875 45.4062 35.4062
Q44.1875 33.9844 37.6406 27.2188
Q31.1094 20.4531 19.1875 8.29688" id="BitstreamVeraSans-Roman-32"/>
      </defs>
      <g style="fill:#262626;" transform="translate(459.6175 775.1575)scale(0.16 -0.16)">
       <use xlink:href="#BitstreamVeraSans-Roman-32"/>
      </g>
     </g>
    </g>
    <g id="xtick_3">
     <g id="line2d_7">
      <path clip-path="url(#p26a8256953)" d="
M664.2 756
L664.2 86.4" style="fill:none;stroke:#cccccc;stroke-linecap:round;"/>
     </g>
     <g id="line2d_8">
      <g>
       <use style="fill:#262626;stroke:#262626;" x="664.2" xlink:href="#m219da94a98" y="756.0"/>
      </g>
     </g>
     <g id="line2d_9">
      <g>
       <use style="fill:#262626;stroke:#262626;" x="664.2" xlink:href="#m219da94a98" y="86.4"/>
      </g>
     </g>
     <g id="text_3">
      <!-- 3 -->
      <defs>
       <path d="
M40.5781 39.3125
Q47.6562 37.7969 51.625 33
Q55.6094 28.2188 55.6094 21.1875
Q55.6094 10.4062 48.1875 4.48438
Q40.7656 -1.42188 27.0938 -1.42188
Q22.5156 -1.42188 17.6562 -0.515625
Q12.7969 0.390625 7.625 2.20312
L7.625 11.7188
Q11.7188 9.32812 16.5938 8.10938
Q21.4844 6.89062 26.8125 6.89062
Q36.0781 6.89062 40.9375 10.5469
Q45.7969 14.2031 45.7969 21.1875
Q45.7969 27.6406 41.2812 31.2656
Q36.7656 34.9062 28.7188 34.9062
L20.2188 34.9062
L20.2188 43.0156
L29.1094 43.0156
Q36.375 43.0156 40.2344 45.9219
Q44.0938 48.8281 44.0938 54.2969
Q44.0938 59.9062 40.1094 62.9062
Q36.1406 65.9219 28.7188 65.9219
Q24.6562 65.9219 20.0156 65.0312
Q15.375 64.1562 9.8125 62.3125
L9.8125 71.0938
Q15.4375 72.6562 20.3438 73.4375
Q25.25 74.2188 29.5938 74.2188
Q40.8281 74.2188 47.3594 69.1094
Q53.9062 64.0156 53.9062 55.3281
Q53.9062 49.2656 50.4375 45.0938
Q46.9688 40.9219 40.5781 39.3125" id="BitstreamVeraSans-Roman-33"/>
      </defs>
      <g style="fill:#262626;" transform="translate(660.36125 775.1575)scale(0.16 -0.16)">
       <use xlink:href="#BitstreamVeraSans-Roman-33"/>
      </g>
     </g>
    </g>
    <g id="xtick_4">
     <g id="line2d_10">
      <path clip-path="url(#p26a8256953)" d="
M865.08 756
L865.08 86.4" style="fill:none;stroke:#cccccc;stroke-linecap:round;"/>
     </g>
     <g id="line2d_11">
      <g>
       <use style="fill:#262626;stroke:#262626;" x="865.08" xlink:href="#m219da94a98" y="756.0"/>
      </g>
     </g>
     <g id="line2d_12">
      <g>
       <use style="fill:#262626;stroke:#262626;" x="865.08" xlink:href="#m219da94a98" y="86.4"/>
      </g>
     </g>
     <g id="text_4">
      <!-- 4 -->
      <defs>
       <path d="
M37.7969 64.3125
L12.8906 25.3906
L37.7969 25.3906
z

M35.2031 72.9062
L47.6094 72.9062
L47.6094 25.3906
L58.0156 25.3906
L58.0156 17.1875
L47.6094 17.1875
L47.6094 0
L37.7969 0
L37.7969 17.1875
L4.89062 17.1875
L4.89062 26.7031
z
" id="BitstreamVeraSans-Roman-34"/>
      </defs>
      <g style="fill:#262626;" transform="translate(860.83 775.1575)scale(0.16 -0.16)">
       <use xlink:href="#BitstreamVeraSans-Roman-34"/>
      </g>
     </g>
    </g>
    <g id="xtick_5">
     <g id="line2d_13">
      <path clip-path="url(#p26a8256953)" d="
M1065.96 756
L1065.96 86.4" style="fill:none;stroke:#cccccc;stroke-linecap:round;"/>
     </g>
     <g id="line2d_14">
      <g>
       <use style="fill:#262626;stroke:#262626;" x="1065.96" xlink:href="#m219da94a98" y="756.0"/>
      </g>
     </g>
     <g id="line2d_15">
      <g>
       <use style="fill:#262626;stroke:#262626;" x="1065.96" xlink:href="#m219da94a98" y="86.4"/>
      </g>
     </g>
     <g id="text_5">
      <!-- async -->
      <defs>
       <path d="
M54.8906 33.0156
L54.8906 0
L45.9062 0
L45.9062 32.7188
Q45.9062 40.4844 42.875 44.3281
Q39.8438 48.1875 33.7969 48.1875
Q26.5156 48.1875 22.3125 43.5469
Q18.1094 38.9219 18.1094 30.9062
L18.1094 0
L9.07812 0
L9.07812 54.6875
L18.1094 54.6875
L18.1094 46.1875
Q21.3438 51.125 25.7031 53.5625
Q30.0781 56 35.7969 56
Q45.2188 56 50.0469 50.1719
Q54.8906 44.3438 54.8906 33.0156" id="BitstreamVeraSans-Roman-6e"/>
       <path d="
M34.2812 27.4844
Q23.3906 27.4844 19.1875 25
Q14.9844 22.5156 14.9844 16.5
Q14.9844 11.7188 18.1406 8.90625
Q21.2969 6.10938 26.7031 6.10938
Q34.1875 6.10938 38.7031 11.4062
Q43.2188 16.7031 43.2188 25.4844
L43.2188 27.4844
z

M52.2031 31.2031
L52.2031 0
L43.2188 0
L43.2188 8.29688
Q40.1406 3.32812 35.5469 0.953125
Q30.9531 -1.42188 24.3125 -1.42188
Q15.9219 -1.42188 10.9531 3.29688
Q6 8.01562 6 15.9219
Q6 25.1406 12.1719 29.8281
Q18.3594 34.5156 30.6094 34.5156
L43.2188 34.5156
L43.2188 35.4062
Q43.2188 41.6094 39.1406 45
Q35.0625 48.3906 27.6875 48.3906
Q23 48.3906 18.5469 47.2656
Q14.1094 46.1406 10.0156 43.8906
L10.0156 52.2031
Q14.9375 54.1094 19.5781 55.0469
Q24.2188 56 28.6094 56
Q40.4844 56 46.3438 49.8438
Q52.2031 43.7031 52.2031 31.2031" id="BitstreamVeraSans-Roman-61"/>
       <path d="
M44.2812 53.0781
L44.2812 44.5781
Q40.4844 46.5312 36.375 47.5
Q32.2812 48.4844 27.875 48.4844
Q21.1875 48.4844 17.8438 46.4375
Q14.5 44.3906 14.5 40.2812
Q14.5 37.1562 16.8906 35.375
Q19.2812 33.5938 26.5156 31.9844
L29.5938 31.2969
Q39.1562 29.25 43.1875 25.5156
Q47.2188 21.7812 47.2188 15.0938
Q47.2188 7.46875 41.1875 3.01562
Q35.1562 -1.42188 24.6094 -1.42188
Q20.2188 -1.42188 15.4531 -0.5625
Q10.6875 0.296875 5.42188 2
L5.42188 11.2812
Q10.4062 8.6875 15.2344 7.39062
Q20.0625 6.10938 24.8125 6.10938
Q31.1562 6.10938 34.5625 8.28125
Q37.9844 10.4531 37.9844 14.4062
Q37.9844 18.0625 35.5156 20.0156
Q33.0625 21.9688 24.7031 23.7812
L21.5781 24.5156
Q13.2344 26.2656 9.51562 29.9062
Q5.8125 33.5469 5.8125 39.8906
Q5.8125 47.6094 11.2812 51.7969
Q16.75 56 26.8125 56
Q31.7812 56 36.1719 55.2656
Q40.5781 54.5469 44.2812 53.0781" id="BitstreamVeraSans-Roman-73"/>
       <path d="
M48.7812 52.5938
L48.7812 44.1875
Q44.9688 46.2969 41.1406 47.3438
Q37.3125 48.3906 33.4062 48.3906
Q24.6562 48.3906 19.8125 42.8438
Q14.9844 37.3125 14.9844 27.2969
Q14.9844 17.2812 19.8125 11.7344
Q24.6562 6.20312 33.4062 6.20312
Q37.3125 6.20312 41.1406 7.25
Q44.9688 8.29688 48.7812 10.4062
L48.7812 2.09375
Q45.0156 0.34375 40.9844 -0.53125
Q36.9688 -1.42188 32.4219 -1.42188
Q20.0625 -1.42188 12.7812 6.34375
Q5.51562 14.1094 5.51562 27.2969
Q5.51562 40.6719 12.8594 48.3281
Q20.2188 56 33.0156 56
Q37.1562 56 41.1094 55.1406
Q45.0625 54.2969 48.7812 52.5938" id="BitstreamVeraSans-Roman-63"/>
       <path d="
M32.1719 -5.07812
Q28.375 -14.8438 24.75 -17.8125
Q21.1406 -20.7969 15.0938 -20.7969
L7.90625 -20.7969
L7.90625 -13.2812
L13.1875 -13.2812
Q16.8906 -13.2812 18.9375 -11.5156
Q21 -9.76562 23.4844 -3.21875
L25.0938 0.875
L2.98438 54.6875
L12.5 54.6875
L29.5938 11.9219
L46.6875 54.6875
L56.2031 54.6875
z
" id="BitstreamVeraSans-Roman-79"/>
      </defs>
      <g style="fill:#262626;" transform="translate(1043.6625 775.1575)scale(0.16 -0.16)">
       <use xlink:href="#BitstreamVeraSans-Roman-61"/>
       <use x="61.279296875" xlink:href="#BitstreamVeraSans-Roman-73"/>
       <use x="113.37890625" xlink:href="#BitstreamVeraSans-Roman-79"/>
       <use x="172.55859375" xlink:href="#BitstreamVeraSans-Roman-6e"/>
       <use x="235.9375" xlink:href="#BitstreamVeraSans-Roman-63"/>
      </g>
     </g>
    </g>
    <g id="text_6">
     <!-- Num Threads -->
     <defs>
      <path id="BitstreamVeraSans-Roman-20"/>
      <path d="
M9.8125 72.9062
L23.0938 72.9062
L55.4219 11.9219
L55.4219 72.9062
L64.9844 72.9062
L64.9844 0
L51.7031 0
L19.3906 60.9844
L19.3906 0
L9.8125 0
z
" id="BitstreamVeraSans-Roman-4e"/>
      <path d="
M52 44.1875
Q55.375 50.25 60.0625 53.125
Q64.75 56 71.0938 56
Q79.6406 56 84.2812 50.0156
Q88.9219 44.0469 88.9219 33.0156
L88.9219 0
L79.8906 0
L79.8906 32.7188
Q79.8906 40.5781 77.0938 44.375
Q74.3125 48.1875 68.6094 48.1875
Q61.625 48.1875 57.5625 43.5469
Q53.5156 38.9219 53.5156 30.9062
L53.5156 0
L44.4844 0
L44.4844 32.7188
Q44.4844 40.625 41.7031 44.4062
Q38.9219 48.1875 33.1094 48.1875
Q26.2188 48.1875 22.1562 43.5312
Q18.1094 38.875 18.1094 30.9062
L18.1094 0
L9.07812 0
L9.07812 54.6875
L18.1094 54.6875
L18.1094 46.1875
Q21.1875 51.2188 25.4844 53.6094
Q29.7812 56 35.6875 56
Q41.6562 56 45.8281 52.9688
Q50 49.9531 52 44.1875" id="BitstreamVeraSans-Roman-6d"/>
      <path d="
M-0.296875 72.9062
L61.375 72.9062
L61.375 64.5938
L35.5 64.5938
L35.5 0
L25.5938 0
L25.5938 64.5938
L-0.296875 64.5938
z
" id="BitstreamVeraSans-Roman-54"/>
      <path d="
M54.8906 33.0156
L54.8906 0
L45.9062 0
L45.9062 32.7188
Q45.9062 40.4844 42.875 44.3281
Q39.8438 48.1875 33.7969 48.1875
Q26.5156 48.1875 22.3125 43.5469
Q18.1094 38.9219 18.1094 30.9062
L18.1094 0
L9.07812 0
L9.07812 75.9844
L18.1094 75.9844
L18.1094 46.1875
Q21.3438 51.125 25.7031 53.5625
Q30.0781 56 35.7969 56
Q45.2188 56 50.0469 50.1719
Q54.8906 44.3438 54.8906 33.0156" id="BitstreamVeraSans-Roman-68"/>
      <path d="
M56.2031 29.5938
L56.2031 25.2031
L14.8906 25.2031
Q15.4844 15.9219 20.4844 11.0625
Q25.4844 6.20312 34.4219 6.20312
Q39.5938 6.20312 44.4531 7.46875
Q49.3125 8.73438 54.1094 11.2812
L54.1094 2.78125
Q49.2656 0.734375 44.1875 -0.34375
Q39.1094 -1.42188 33.8906 -1.42188
Q20.7969 -1.42188 13.1562 6.1875
Q5.51562 13.8125 5.51562 26.8125
Q5.51562 40.2344 12.7656 48.1094
Q20.0156 56 32.3281 56
Q43.3594 56 49.7812 48.8906
Q56.2031 41.7969 56.2031 29.5938
M47.2188 32.2344
Q47.125 39.5938 43.0938 43.9844
Q39.0625 48.3906 32.4219 48.3906
Q24.9062 48.3906 20.3906 44.1406
Q15.875 39.8906 15.1875 32.1719
z
" id="BitstreamVeraSans-Roman-65"/>
      <path d="
M45.4062 46.3906
L45.4062 75.9844
L54.3906 75.9844
L54.3906 0
L45.4062 0
L45.4062 8.20312
Q42.5781 3.32812 38.25 0.953125
Q33.9375 -1.42188 27.875 -1.42188
Q17.9688 -1.42188 11.7344 6.48438
Q5.51562 14.4062 5.51562 27.2969
Q5.51562 40.1875 11.7344 48.0938
Q17.9688 56 27.875 56
Q33.9375 56 38.25 53.625
Q42.5781 51.2656 45.4062 46.3906
M14.7969 27.2969
Q14.7969 17.3906 18.875 11.75
Q22.9531 6.10938 30.0781 6.10938
Q37.2031 6.10938 41.2969 11.75
Q45.4062 17.3906 45.4062 27.2969
Q45.4062 37.2031 41.2969 42.8438
Q37.2031 48.4844 30.0781 48.4844
Q22.9531 48.4844 18.875 42.8438
Q14.7969 37.2031 14.7969 27.2969" id="BitstreamVeraSans-Roman-64"/>
      <path d="
M8.5 21.5781
L8.5 54.6875
L17.4844 54.6875
L17.4844 21.9219
Q17.4844 14.1562 20.5 10.2656
Q23.5312 6.39062 29.5938 6.39062
Q36.8594 6.39062 41.0781 11.0312
Q45.3125 15.6719 45.3125 23.6875
L45.3125 54.6875
L54.2969 54.6875
L54.2969 0
L45.3125 0
L45.3125 8.40625
Q42.0469 3.42188 37.7188 1
Q33.4062 -1.42188 27.6875 -1.42188
Q18.2656 -1.42188 13.375 4.4375
Q8.5 10.2969 8.5 21.5781" id="BitstreamVeraSans-Roman-75"/>
      <path d="
M41.1094 46.2969
Q39.5938 47.1719 37.8125 47.5781
Q36.0312 48 33.8906 48
Q26.2656 48 22.1875 43.0469
Q18.1094 38.0938 18.1094 28.8125
L18.1094 0
L9.07812 0
L9.07812 54.6875
L18.1094 54.6875
L18.1094 46.1875
Q20.9531 51.1719 25.4844 53.5781
Q30.0312 56 36.5312 56
Q37.4531 56 38.5781 55.875
Q39.7031 55.7656 41.0625 55.5156
z
" id="BitstreamVeraSans-Roman-72"/>
     </defs>
     <g style="fill:#262626;" transform="translate(597.7796875 798.681875)scale(0.2 -0.2)">
      <use xlink:href="#BitstreamVeraSans-Roman-4e"/>
      <use x="74.8046875" xlink:href="#BitstreamVeraSans-Roman-75"/>
      <use x="138.18359375" xlink:href="#BitstreamVeraSans-Roman-6d"/>
      <use x="235.595703125" xlink:href="#BitstreamVeraSans-Roman-20"/>
      <use x="267.3828125" xlink:href="#BitstreamVeraSans-Roman-54"/>
      <use x="328.466796875" xlink:href="#BitstreamVeraSans-Roman-68"/>
      <use x="391.845703125" xlink:href="#BitstreamVeraSans-Roman-72"/>
      <use x="430.708984375" xlink:href="#BitstreamVeraSans-Roman-65"/>
      <use x="492.232421875" xlink:href="#BitstreamVeraSans-Roman-61"/>
      <use x="553.51171875" xlink:href="#BitstreamVeraSans-Roman-64"/>
      <use x="616.98828125" xlink:href="#BitstreamVeraSans-Roman-73"/>
     </g>
    </g>
   </g>
   <g id="matplotlib.axis_2">
    <g id="ytick_1">
     <g id="line2d_16">
      <path clip-path="url(#p26a8256953)" d="
M162 756
L1166.4 756" style="fill:none;stroke:#cccccc;stroke-linecap:round;"/>
     </g>
     <g id="line2d_17">
      <g>
       <use style="fill:#262626;stroke:#262626;" x="162.0" xlink:href="#m219da94a98" y="756.0"/>
      </g>
     </g>
     <g id="line2d_18">
      <g>
       <use style="fill:#262626;stroke:#262626;" x="1166.4" xlink:href="#m219da94a98" y="756.0"/>
      </g>
     </g>
     <g id="text_7">
      <!-- 0.0000 -->
      <defs>
       <path d="
M31.7812 66.4062
Q24.1719 66.4062 20.3281 58.9062
Q16.5 51.4219 16.5 36.375
Q16.5 21.3906 20.3281 13.8906
Q24.1719 6.39062 31.7812 6.39062
Q39.4531 6.39062 43.2812 13.8906
Q47.125 21.3906 47.125 36.375
Q47.125 51.4219 43.2812 58.9062
Q39.4531 66.4062 31.7812 66.4062
M31.7812 74.2188
Q44.0469 74.2188 50.5156 64.5156
Q56.9844 54.8281 56.9844 36.375
Q56.9844 17.9688 50.5156 8.26562
Q44.0469 -1.42188 31.7812 -1.42188
Q19.5312 -1.42188 13.0625 8.26562
Q6.59375 17.9688 6.59375 36.375
Q6.59375 54.8281 13.0625 64.5156
Q19.5312 74.2188 31.7812 74.2188" id="BitstreamVeraSans-Roman-30"/>
       <path d="
M10.6875 12.4062
L21 12.4062
L21 0
L10.6875 0
z
" id="BitstreamVeraSans-Roman-2e"/>
      </defs>
      <g style="fill:#262626;" transform="translate(94.3990625 760.966875)scale(0.18 -0.18)">
       <use xlink:href="#BitstreamVeraSans-Roman-30"/>
       <use x="63.623046875" xlink:href="#BitstreamVeraSans-Roman-2e"/>
       <use x="95.41015625" xlink:href="#BitstreamVeraSans-Roman-30"/>
       <use x="159.033203125" xlink:href="#BitstreamVeraSans-Roman-30"/>
       <use x="222.65625" xlink:href="#BitstreamVeraSans-Roman-30"/>
       <use x="286.279296875" xlink:href="#BitstreamVeraSans-Roman-30"/>
      </g>
     </g>
    </g>
    <g id="ytick_2">
     <g id="line2d_19">
      <path clip-path="url(#p26a8256953)" d="
M162 651.375
L1166.4 651.375" style="fill:none;stroke:#cccccc;stroke-linecap:round;"/>
     </g>
     <g id="line2d_20">
      <g>
       <use style="fill:#262626;stroke:#262626;" x="162.0" xlink:href="#m219da94a98" y="651.375"/>
      </g>
     </g>
     <g id="line2d_21">
      <g>
       <use style="fill:#262626;stroke:#262626;" x="1166.4" xlink:href="#m219da94a98" y="651.375"/>
      </g>
     </g>
     <g id="text_8">
      <!-- 0.0005 -->
      <defs>
       <path d="
M10.7969 72.9062
L49.5156 72.9062
L49.5156 64.5938
L19.8281 64.5938
L19.8281 46.7344
Q21.9688 47.4688 24.1094 47.8281
Q26.2656 48.1875 28.4219 48.1875
Q40.625 48.1875 47.75 41.5
Q54.8906 34.8125 54.8906 23.3906
Q54.8906 11.625 47.5625 5.09375
Q40.2344 -1.42188 26.9062 -1.42188
Q22.3125 -1.42188 17.5469 -0.640625
Q12.7969 0.140625 7.71875 1.70312
L7.71875 11.625
Q12.1094 9.23438 16.7969 8.0625
Q21.4844 6.89062 26.7031 6.89062
Q35.1562 6.89062 40.0781 11.3281
Q45.0156 15.7656 45.0156 23.3906
Q45.0156 31 40.0781 35.4375
Q35.1562 39.8906 26.7031 39.8906
Q22.75 39.8906 18.8125 39.0156
Q14.8906 38.1406 10.7969 36.2812
z
" id="BitstreamVeraSans-Roman-35"/>
      </defs>
      <g style="fill:#262626;" transform="translate(94.7759375 656.341875)scale(0.18 -0.18)">
       <use xlink:href="#BitstreamVeraSans-Roman-30"/>
       <use x="63.623046875" xlink:href="#BitstreamVeraSans-Roman-2e"/>
       <use x="95.41015625" xlink:href="#BitstreamVeraSans-Roman-30"/>
       <use x="159.033203125" xlink:href="#BitstreamVeraSans-Roman-30"/>
       <use x="222.65625" xlink:href="#BitstreamVeraSans-Roman-30"/>
       <use x="286.279296875" xlink:href="#BitstreamVeraSans-Roman-35"/>
      </g>
     </g>
    </g>
    <g id="ytick_3">
     <g id="line2d_22">
      <path clip-path="url(#p26a8256953)" d="
M162 546.75
L1166.4 546.75" style="fill:none;stroke:#cccccc;stroke-linecap:round;"/>
     </g>
     <g id="line2d_23">
      <g>
       <use style="fill:#262626;stroke:#262626;" x="162.0" xlink:href="#m219da94a98" y="546.75"/>
      </g>
     </g>
     <g id="line2d_24">
      <g>
       <use style="fill:#262626;stroke:#262626;" x="1166.4" xlink:href="#m219da94a98" y="546.75"/>
      </g>
     </g>
     <g id="text_9">
      <!-- 0.0010 -->
      <g style="fill:#262626;" transform="translate(94.3990625 551.716875)scale(0.18 -0.18)">
       <use xlink:href="#BitstreamVeraSans-Roman-30"/>
       <use x="63.623046875" xlink:href="#BitstreamVeraSans-Roman-2e"/>
       <use x="95.41015625" xlink:href="#BitstreamVeraSans-Roman-30"/>
       <use x="159.033203125" xlink:href="#BitstreamVeraSans-Roman-30"/>
       <use x="222.65625" xlink:href="#BitstreamVeraSans-Roman-31"/>
       <use x="286.279296875" xlink:href="#BitstreamVeraSans-Roman-30"/>
      </g>
     </g>
    </g>
    <g id="ytick_4">
     <g id="line2d_25">
      <path clip-path="url(#p26a8256953)" d="
M162 442.125
L1166.4 442.125" style="fill:none;stroke:#cccccc;stroke-linecap:round;"/>
     </g>
     <g id="line2d_26">
      <g>
       <use style="fill:#262626;stroke:#262626;" x="162.0" xlink:href="#m219da94a98" y="442.125"/>
      </g>
     </g>
     <g id="line2d_27">
      <g>
       <use style="fill:#262626;stroke:#262626;" x="1166.4" xlink:href="#m219da94a98" y="442.125"/>
      </g>
     </g>
     <g id="text_10">
      <!-- 0.0015 -->
      <g style="fill:#262626;" transform="translate(94.7759375 447.091875)scale(0.18 -0.18)">
       <use xlink:href="#BitstreamVeraSans-Roman-30"/>
       <use x="63.623046875" xlink:href="#BitstreamVeraSans-Roman-2e"/>
       <use x="95.41015625" xlink:href="#BitstreamVeraSans-Roman-30"/>
       <use x="159.033203125" xlink:href="#BitstreamVeraSans-Roman-30"/>
       <use x="222.65625" xlink:href="#BitstreamVeraSans-Roman-31"/>
       <use x="286.279296875" xlink:href="#BitstreamVeraSans-Roman-35"/>
      </g>
     </g>
    </g>
    <g id="ytick_5">
     <g id="line2d_28">
      <path clip-path="url(#p26a8256953)" d="
M162 337.5
L1166.4 337.5" style="fill:none;stroke:#cccccc;stroke-linecap:round;"/>
     </g>
     <g id="line2d_29">
      <g>
       <use style="fill:#262626;stroke:#262626;" x="162.0" xlink:href="#m219da94a98" y="337.5"/>
      </g>
     </g>
     <g id="line2d_30">
      <g>
       <use style="fill:#262626;stroke:#262626;" x="1166.4" xlink:href="#m219da94a98" y="337.5"/>
      </g>
     </g>
     <g id="text_11">
      <!-- 0.0020 -->
      <g style="fill:#262626;" transform="translate(94.3990625 342.466875)scale(0.18 -0.18)">
       <use xlink:href="#BitstreamVeraSans-Roman-30"/>
       <use x="63.623046875" xlink:href="#BitstreamVeraSans-Roman-2e"/>
       <use x="95.41015625" xlink:href="#BitstreamVeraSans-Roman-30"/>
       <use x="159.033203125" xlink:href="#BitstreamVeraSans-Roman-30"/>
       <use x="222.65625" xlink:href="#BitstreamVeraSans-Roman-32"/>
       <use x="286.279296875" xlink:href="#BitstreamVeraSans-Roman-30"/>
      </g>
     </g>
    </g>
    <g id="ytick_6">
     <g id="line2d_31">
      <path clip-path="url(#p26a8256953)" d="
M162 232.875
L1166.4 232.875" style="fill:none;stroke:#cccccc;stroke-linecap:round;"/>
     </g>
     <g id="line2d_32">
      <g>
       <use style="fill:#262626;stroke:#262626;" x="162.0" xlink:href="#m219da94a98" y="232.875"/>
      </g>
     </g>
     <g id="line2d_33">
      <g>
       <use style="fill:#262626;stroke:#262626;" x="1166.4" xlink:href="#m219da94a98" y="232.875"/>
      </g>
     </g>
     <g id="text_12">
      <!-- 0.0025 -->
      <g style="fill:#262626;" transform="translate(94.7759375 237.841875)scale(0.18 -0.18)">
       <use xlink:href="#BitstreamVeraSans-Roman-30"/>
       <use x="63.623046875" xlink:href="#BitstreamVeraSans-Roman-2e"/>
       <use x="95.41015625" xlink:href="#BitstreamVeraSans-Roman-30"/>
       <use x="159.033203125" xlink:href="#BitstreamVeraSans-Roman-30"/>
       <use x="222.65625" xlink:href="#BitstreamVeraSans-Roman-32"/>
       <use x="286.279296875" xlink:href="#BitstreamVeraSans-Roman-35"/>
      </g>
     </g>
    </g>
    <g id="ytick_7">
     <g id="line2d_34">
      <path clip-path="url(#p26a8256953)" d="
M162 128.25
L1166.4 128.25" style="fill:none;stroke:#cccccc;stroke-linecap:round;"/>
     </g>
     <g id="line2d_35">
      <g>
       <use style="fill:#262626;stroke:#262626;" x="162.0" xlink:href="#m219da94a98" y="128.25"/>
      </g>
     </g>
     <g id="line2d_36">
      <g>
       <use style="fill:#262626;stroke:#262626;" x="1166.4" xlink:href="#m219da94a98" y="128.25"/>
      </g>
     </g>
     <g id="text_13">
      <!-- 0.0030 -->
      <g style="fill:#262626;" transform="translate(94.3990625 133.216875)scale(0.18 -0.18)">
       <use xlink:href="#BitstreamVeraSans-Roman-30"/>
       <use x="63.623046875" xlink:href="#BitstreamVeraSans-Roman-2e"/>
       <use x="95.41015625" xlink:href="#BitstreamVeraSans-Roman-30"/>
       <use x="159.033203125" xlink:href="#BitstreamVeraSans-Roman-30"/>
       <use x="222.65625" xlink:href="#BitstreamVeraSans-Roman-33"/>
       <use x="286.279296875" xlink:href="#BitstreamVeraSans-Roman-30"/>
      </g>
     </g>
    </g>
    <g id="text_14">
     <!-- Exec Time (s) -->
     <defs>
      <path d="
M8.01562 75.875
L15.8281 75.875
Q23.1406 64.3594 26.7812 53.3125
Q30.4219 42.2812 30.4219 31.3906
Q30.4219 20.4531 26.7812 9.375
Q23.1406 -1.70312 15.8281 -13.1875
L8.01562 -13.1875
Q14.5 -2 17.7031 9.0625
Q20.9062 20.125 20.9062 31.3906
Q20.9062 42.6719 17.7031 53.6562
Q14.5 64.6562 8.01562 75.875" id="BitstreamVeraSans-Roman-29"/>
      <path d="
M31 75.875
Q24.4688 64.6562 21.2812 53.6562
Q18.1094 42.6719 18.1094 31.3906
Q18.1094 20.125 21.3125 9.0625
Q24.5156 -2 31 -13.1875
L23.1875 -13.1875
Q15.875 -1.70312 12.2344 9.375
Q8.59375 20.4531 8.59375 31.3906
Q8.59375 42.2812 12.2031 53.3125
Q15.8281 64.3594 23.1875 75.875
z
" id="BitstreamVeraSans-Roman-28"/>
      <path d="
M9.8125 72.9062
L55.9062 72.9062
L55.9062 64.5938
L19.6719 64.5938
L19.6719 43.0156
L54.3906 43.0156
L54.3906 34.7188
L19.6719 34.7188
L19.6719 8.29688
L56.7812 8.29688
L56.7812 0
L9.8125 0
z
" id="BitstreamVeraSans-Roman-45"/>
      <path d="
M9.42188 54.6875
L18.4062 54.6875
L18.4062 0
L9.42188 0
z

M9.42188 75.9844
L18.4062 75.9844
L18.4062 64.5938
L9.42188 64.5938
z
" id="BitstreamVeraSans-Roman-69"/>
      <path d="
M54.8906 54.6875
L35.1094 28.0781
L55.9062 0
L45.3125 0
L29.3906 21.4844
L13.4844 0
L2.875 0
L24.125 28.6094
L4.6875 54.6875
L15.2812 54.6875
L29.7812 35.2031
L44.2812 54.6875
z
" id="BitstreamVeraSans-Roman-78"/>
     </defs>
     <g style="fill:#262626;" transform="translate(85.2396875 487.753125)rotate(-90.0)scale(0.2 -0.2)">
      <use xlink:href="#BitstreamVeraSans-Roman-45"/>
      <use x="63.18359375" xlink:href="#BitstreamVeraSans-Roman-78"/>
      <use x="119.23828125" xlink:href="#BitstreamVeraSans-Roman-65"/>
      <use x="180.76171875" xlink:href="#BitstreamVeraSans-Roman-63"/>
      <use x="235.7421875" xlink:href="#BitstreamVeraSans-Roman-20"/>
      <use x="267.529296875" xlink:href="#BitstreamVeraSans-Roman-54"/>
      <use x="325.48828125" xlink:href="#BitstreamVeraSans-Roman-69"/>
      <use x="353.271484375" xlink:href="#BitstreamVeraSans-Roman-6d"/>
      <use x="450.68359375" xlink:href="#BitstreamVeraSans-Roman-65"/>
      <use x="512.20703125" xlink:href="#BitstreamVeraSans-Roman-20"/>
      <use x="543.994140625" xlink:href="#BitstreamVeraSans-Roman-28"/>
      <use x="583.0078125" xlink:href="#BitstreamVeraSans-Roman-73"/>
      <use x="635.107421875" xlink:href="#BitstreamVeraSans-Roman-29"/>
     </g>
    </g>
   </g>
   <g id="line2d_37">
    <path clip-path="url(#p26a8256953)" d="
M262.44 236.006
L262.44 239.748" style="fill:none;stroke:#4c72b0;stroke-dasharray:6.000000,6.000000;stroke-dashoffset:0.0;stroke-width:1.75;"/>
   </g>
   <g id="line2d_38">
    <path clip-path="url(#p26a8256953)" d="
M262.44 231.416
L262.44 224.532" style="fill:none;stroke:#4c72b0;stroke-dasharray:6.000000,6.000000;stroke-dashoffset:0.0;stroke-width:1.75;"/>
   </g>
   <g id="line2d_39">
    <path clip-path="url(#p26a8256953)" d="
M237.33 224.532
L287.55 224.532" style="fill:none;stroke:#000000;stroke-linecap:round;stroke-width:1.75;"/>
   </g>
   <g id="line2d_40">
    <path clip-path="url(#p26a8256953)" d="
M237.33 239.748
L287.55 239.748" style="fill:none;stroke:#000000;stroke-linecap:round;stroke-width:1.75;"/>
   </g>
   <g id="line2d_41">
    <path clip-path="url(#p26a8256953)" d="
M212.22 236.006
L312.66 236.006
L312.66 231.416
L212.22 231.416
L212.22 236.006" style="fill:none;stroke:#4c72b0;stroke-linecap:round;stroke-width:1.75;"/>
   </g>
   <g id="line2d_42">
    <path clip-path="url(#p26a8256953)" d="
M212.22 234.31
L312.66 234.31" style="fill:none;stroke:#c44e52;stroke-linecap:round;stroke-width:1.75;"/>
   </g>
   <g id="line2d_43">
    <defs>
     <path d="
M-3.5 0
L3.5 0
M0 3.5
L0 -3.5" id="mfe7611bb55"/>
    </defs>
    <g clip-path="url(#p26a8256953)">
     <use style="fill:#0000ff;" x="262.44" xlink:href="#mfe7611bb55" y="198.589223385"/>
     <use style="fill:#0000ff;" x="262.44" xlink:href="#mfe7611bb55" y="223.034876347"/>
     <use style="fill:#0000ff;" x="262.44" xlink:href="#mfe7611bb55" y="221.588092804"/>
     <use style="fill:#0000ff;" x="262.44" xlink:href="#mfe7611bb55" y="218.844192982"/>
     <use style="fill:#0000ff;" x="262.44" xlink:href="#mfe7611bb55" y="224.282103539"/>
     <use style="fill:#0000ff;" x="262.44" xlink:href="#mfe7611bb55" y="220.091420174"/>
     <use style="fill:#0000ff;" x="262.44" xlink:href="#mfe7611bb55" y="221.987205505"/>
     <use style="fill:#0000ff;" x="262.44" xlink:href="#mfe7611bb55" y="179.531591892"/>
     <use style="fill:#0000ff;" x="262.44" xlink:href="#mfe7611bb55" y="222.585874557"/>
     <use style="fill:#0000ff;" x="262.44" xlink:href="#mfe7611bb55" y="224.082547188"/>
     <use style="fill:#0000ff;" x="262.44" xlink:href="#mfe7611bb55" y="222.436207294"/>
     <use style="fill:#0000ff;" x="262.44" xlink:href="#mfe7611bb55" y="224.481659889"/>
     <use style="fill:#0000ff;" x="262.44" xlink:href="#mfe7611bb55" y="224.481659889"/>
     <use style="fill:#0000ff;" x="262.44" xlink:href="#mfe7611bb55" y="224.082547188"/>
     <use style="fill:#0000ff;" x="262.44" xlink:href="#mfe7611bb55" y="219.243305683"/>
     <use style="fill:#0000ff;" x="262.44" xlink:href="#mfe7611bb55" y="223.483878136"/>
     <use style="fill:#0000ff;" x="262.44" xlink:href="#mfe7611bb55" y="222.386318207"/>
     <use style="fill:#0000ff;" x="262.44" xlink:href="#mfe7611bb55" y="222.635763645"/>
     <use style="fill:#0000ff;" x="262.44" xlink:href="#mfe7611bb55" y="215.701180458"/>
     <use style="fill:#0000ff;" x="262.44" xlink:href="#mfe7611bb55" y="222.037094593"/>
     <use style="fill:#0000ff;" x="262.44" xlink:href="#mfe7611bb55" y="223.633545399"/>
     <use style="fill:#0000ff;" x="262.44" xlink:href="#mfe7611bb55" y="220.141309261"/>
     <use style="fill:#0000ff;" x="262.44" xlink:href="#mfe7611bb55" y="222.635763645"/>
     <use style="fill:#0000ff;" x="262.44" xlink:href="#mfe7611bb55" y="223.683434486"/>
     <use style="fill:#0000ff;" x="262.44" xlink:href="#mfe7611bb55" y="223.633545399"/>
     <use style="fill:#0000ff;" x="262.44" xlink:href="#mfe7611bb55" y="188.561516762"/>
     <use style="fill:#0000ff;" x="262.44" xlink:href="#mfe7611bb55" y="223.882990837"/>
     <use style="fill:#0000ff;" x="262.44" xlink:href="#mfe7611bb55" y="223.683434486"/>
     <use style="fill:#0000ff;" x="262.44" xlink:href="#mfe7611bb55" y="222.186761856"/>
     <use style="fill:#0000ff;" x="262.44" xlink:href="#mfe7611bb55" y="223.483878136"/>
     <use style="fill:#0000ff;" x="262.44" xlink:href="#mfe7611bb55" y="221.388536453"/>
     <use style="fill:#0000ff;" x="262.44" xlink:href="#mfe7611bb55" y="179.082590103"/>
     <use style="fill:#0000ff;" x="262.44" xlink:href="#mfe7611bb55" y="222.635763645"/>
     <use style="fill:#0000ff;" x="262.44" xlink:href="#mfe7611bb55" y="190.008300304"/>
     <use style="fill:#0000ff;" x="262.44" xlink:href="#mfe7611bb55" y="222.835319996"/>
     <use style="fill:#0000ff;" x="262.44" xlink:href="#mfe7611bb55" y="197.890776157"/>
     <use style="fill:#0000ff;" x="262.44" xlink:href="#mfe7611bb55" y="222.386318207"/>
     <use style="fill:#0000ff;" x="262.44" xlink:href="#mfe7611bb55" y="222.835319996"/>
     <use style="fill:#0000ff;" x="262.44" xlink:href="#mfe7611bb55" y="224.282103539"/>
     <use style="fill:#0000ff;" x="262.44" xlink:href="#mfe7611bb55" y="162.120300293"/>
     <use style="fill:#0000ff;" x="262.44" xlink:href="#mfe7611bb55" y="220.141309261"/>
    </g>
   </g>
   <g id="line2d_44"/>
   <g id="line2d_45">
    <path clip-path="url(#p26a8256953)" d="
M463.32 357.187
L463.32 359.482" style="fill:none;stroke:#4c72b0;stroke-dasharray:6.000000,6.000000;stroke-dashoffset:0.0;stroke-width:1.75;"/>
   </g>
   <g id="line2d_46">
    <path clip-path="url(#p26a8256953)" d="
M463.32 353.445
L463.32 348.157" style="fill:none;stroke:#4c72b0;stroke-dasharray:6.000000,6.000000;stroke-dashoffset:0.0;stroke-width:1.75;"/>
   </g>
   <g id="line2d_47">
    <path clip-path="url(#p26a8256953)" d="
M438.21 348.157
L488.43 348.157" style="fill:none;stroke:#000000;stroke-linecap:round;stroke-width:1.75;"/>
   </g>
   <g id="line2d_48">
    <path clip-path="url(#p26a8256953)" d="
M438.21 359.482
L488.43 359.482" style="fill:none;stroke:#000000;stroke-linecap:round;stroke-width:1.75;"/>
   </g>
   <g id="line2d_49">
    <path clip-path="url(#p26a8256953)" d="
M413.1 357.187
L513.54 357.187
L513.54 353.445
L413.1 353.445
L413.1 357.187" style="fill:none;stroke:#4c72b0;stroke-linecap:round;stroke-width:1.75;"/>
   </g>
   <g id="line2d_50">
    <path clip-path="url(#p26a8256953)" d="
M413.1 355.69
L513.54 355.69" style="fill:none;stroke:#c44e52;stroke-linecap:round;stroke-width:1.75;"/>
   </g>
   <g id="line2d_51">
    <g clip-path="url(#p26a8256953)">
     <use style="fill:#0000ff;" x="463.32" xlink:href="#mfe7611bb55" y="327.702182293"/>
     <use style="fill:#0000ff;" x="463.32" xlink:href="#mfe7611bb55" y="342.519241333"/>
     <use style="fill:#0000ff;" x="463.32" xlink:href="#mfe7611bb55" y="342.319684982"/>
     <use style="fill:#0000ff;" x="463.32" xlink:href="#mfe7611bb55" y="336.233216286"/>
     <use style="fill:#0000ff;" x="463.32" xlink:href="#mfe7611bb55" y="299.614625931"/>
     <use style="fill:#0000ff;" x="463.32" xlink:href="#mfe7611bb55" y="294.176715374"/>
     <use style="fill:#0000ff;" x="463.32" xlink:href="#mfe7611bb55" y="342.319684982"/>
     <use style="fill:#0000ff;" x="463.32" xlink:href="#mfe7611bb55" y="345.263141155"/>
     <use style="fill:#0000ff;" x="463.32" xlink:href="#mfe7611bb55" y="345.263141155"/>
     <use style="fill:#0000ff;" x="463.32" xlink:href="#mfe7611bb55" y="347.358482838"/>
     <use style="fill:#0000ff;" x="463.32" xlink:href="#mfe7611bb55" y="346.460479259"/>
     <use style="fill:#0000ff;" x="463.32" xlink:href="#mfe7611bb55" y="345.263141155"/>
     <use style="fill:#0000ff;" x="463.32" xlink:href="#mfe7611bb55" y="346.310811996"/>
     <use style="fill:#0000ff;" x="463.32" xlink:href="#mfe7611bb55" y="345.462697506"/>
     <use style="fill:#0000ff;" x="463.32" xlink:href="#mfe7611bb55" y="302.158969402"/>
     <use style="fill:#0000ff;" x="463.32" xlink:href="#mfe7611bb55" y="345.412808418"/>
     <use style="fill:#0000ff;" x="463.32" xlink:href="#mfe7611bb55" y="336.033659935"/>
     <use style="fill:#0000ff;" x="463.32" xlink:href="#mfe7611bb55" y="333.738761902"/>
     <use style="fill:#0000ff;" x="463.32" xlink:href="#mfe7611bb55" y="347.109037399"/>
     <use style="fill:#0000ff;" x="463.32" xlink:href="#mfe7611bb55" y="347.109037399"/>
     <use style="fill:#0000ff;" x="463.32" xlink:href="#mfe7611bb55" y="324.509280682"/>
     <use style="fill:#0000ff;" x="463.32" xlink:href="#mfe7611bb55" y="340.2243433"/>
     <use style="fill:#0000ff;" x="463.32" xlink:href="#mfe7611bb55" y="340.024786949"/>
     <use style="fill:#0000ff;" x="463.32" xlink:href="#mfe7611bb55" y="342.319684982"/>
     <use style="fill:#0000ff;" x="463.32" xlink:href="#mfe7611bb55" y="347.358482838"/>
     <use style="fill:#0000ff;" x="463.32" xlink:href="#mfe7611bb55" y="346.310811996"/>
     <use style="fill:#0000ff;" x="463.32" xlink:href="#mfe7611bb55" y="298.616844177"/>
     <use style="fill:#0000ff;" x="463.32" xlink:href="#mfe7611bb55" y="347.358482838"/>
     <use style="fill:#0000ff;" x="463.32" xlink:href="#mfe7611bb55" y="342.120128632"/>
     <use style="fill:#0000ff;" x="463.32" xlink:href="#mfe7611bb55" y="322.663384438"/>
     <use style="fill:#0000ff;" x="463.32" xlink:href="#mfe7611bb55" y="345.213252068"/>
     <use style="fill:#0000ff;" x="463.32" xlink:href="#mfe7611bb55" y="336.432772636"/>
     <use style="fill:#0000ff;" x="463.32" xlink:href="#mfe7611bb55" y="345.662253857"/>
     <use style="fill:#0000ff;" x="463.32" xlink:href="#mfe7611bb55" y="314.082461357"/>
     <use style="fill:#0000ff;" x="463.32" xlink:href="#mfe7611bb55" y="329.548078537"/>
     <use style="fill:#0000ff;" x="463.32" xlink:href="#mfe7611bb55" y="281.405108929"/>
     <use style="fill:#0000ff;" x="463.32" xlink:href="#mfe7611bb55" y="335.185545444"/>
     <use style="fill:#0000ff;" x="463.32" xlink:href="#mfe7611bb55" y="248.777645588"/>
     <use style="fill:#0000ff;" x="463.32" xlink:href="#mfe7611bb55" y="220.739978313"/>
     <use style="fill:#0000ff;" x="463.32" xlink:href="#mfe7611bb55" y="310.690003395"/>
     <use style="fill:#0000ff;" x="463.32" xlink:href="#mfe7611bb55" y="332.49153471"/>
     <use style="fill:#0000ff;" x="463.32" xlink:href="#mfe7611bb55" y="340.87290144"/>
     <use style="fill:#0000ff;" x="463.32" xlink:href="#mfe7611bb55" y="342.519241333"/>
     <use style="fill:#0000ff;" x="463.32" xlink:href="#mfe7611bb55" y="259.453910351"/>
     <use style="fill:#0000ff;" x="463.32" xlink:href="#mfe7611bb55" y="234.758811951"/>
     <use style="fill:#0000ff;" x="463.32" xlink:href="#mfe7611bb55" y="272.225516796"/>
     <use style="fill:#0000ff;" x="463.32" xlink:href="#mfe7611bb55" y="325.956064224"/>
     <use style="fill:#0000ff;" x="463.32" xlink:href="#mfe7611bb55" y="343.117910385"/>
     <use style="fill:#0000ff;" x="463.32" xlink:href="#mfe7611bb55" y="298.816400528"/>
     <use style="fill:#0000ff;" x="463.32" xlink:href="#mfe7611bb55" y="264.891820908"/>
     <use style="fill:#0000ff;" x="463.32" xlink:href="#mfe7611bb55" y="302.358525753"/>
     <use style="fill:#0000ff;" x="463.32" xlink:href="#mfe7611bb55" y="339.625674248"/>
     <use style="fill:#0000ff;" x="463.32" xlink:href="#mfe7611bb55" y="346.111255646"/>
     <use style="fill:#0000ff;" x="463.32" xlink:href="#mfe7611bb55" y="303.406196594"/>
     <use style="fill:#0000ff;" x="463.32" xlink:href="#mfe7611bb55" y="264.891820908"/>
     <use style="fill:#0000ff;" x="463.32" xlink:href="#mfe7611bb55" y="262.197810173"/>
     <use style="fill:#0000ff;" x="463.32" xlink:href="#mfe7611bb55" y="292.081373692"/>
     <use style="fill:#0000ff;" x="463.32" xlink:href="#mfe7611bb55" y="276.416200161"/>
     <use style="fill:#0000ff;" x="463.32" xlink:href="#mfe7611bb55" y="252.718883514"/>
     <use style="fill:#0000ff;" x="463.32" xlink:href="#mfe7611bb55" y="259.703355789"/>
     <use style="fill:#0000ff;" x="463.32" xlink:href="#mfe7611bb55" y="260.701137543"/>
     <use style="fill:#0000ff;" x="463.32" xlink:href="#mfe7611bb55" y="260.302024841"/>
     <use style="fill:#0000ff;" x="463.32" xlink:href="#mfe7611bb55" y="266.1390481"/>
     <use style="fill:#0000ff;" x="463.32" xlink:href="#mfe7611bb55" y="255.462783337"/>
     <use style="fill:#0000ff;" x="463.32" xlink:href="#mfe7611bb55" y="262.397366524"/>
     <use style="fill:#0000ff;" x="463.32" xlink:href="#mfe7611bb55" y="262.796479225"/>
     <use style="fill:#0000ff;" x="463.32" xlink:href="#mfe7611bb55" y="260.052579403"/>
     <use style="fill:#0000ff;" x="463.32" xlink:href="#mfe7611bb55" y="264.293151855"/>
     <use style="fill:#0000ff;" x="463.32" xlink:href="#mfe7611bb55" y="260.052579403"/>
     <use style="fill:#0000ff;" x="463.32" xlink:href="#mfe7611bb55" y="261.748808384"/>
     <use style="fill:#0000ff;" x="463.32" xlink:href="#mfe7611bb55" y="258.805352211"/>
     <use style="fill:#0000ff;" x="463.32" xlink:href="#mfe7611bb55" y="260.701137543"/>
     <use style="fill:#0000ff;" x="463.32" xlink:href="#mfe7611bb55" y="263.844150066"/>
     <use style="fill:#0000ff;" x="463.32" xlink:href="#mfe7611bb55" y="334.985989094"/>
    </g>
   </g>
   <g id="line2d_52"/>
   <g id="line2d_53">
    <path clip-path="url(#p26a8256953)" d="
M664.2 354.692
L664.2 357.636" style="fill:none;stroke:#4c72b0;stroke-dasharray:6.000000,6.000000;stroke-dashoffset:0.0;stroke-width:1.75;"/>
   </g>
   <g id="line2d_54">
    <path clip-path="url(#p26a8256953)" d="
M664.2 350.851
L664.2 345.263" style="fill:none;stroke:#4c72b0;stroke-dasharray:6.000000,6.000000;stroke-dashoffset:0.0;stroke-width:1.75;"/>
   </g>
   <g id="line2d_55">
    <path clip-path="url(#p26a8256953)" d="
M639.09 345.263
L689.31 345.263" style="fill:none;stroke:#000000;stroke-linecap:round;stroke-width:1.75;"/>
   </g>
   <g id="line2d_56">
    <path clip-path="url(#p26a8256953)" d="
M639.09 357.636
L689.31 357.636" style="fill:none;stroke:#000000;stroke-linecap:round;stroke-width:1.75;"/>
   </g>
   <g id="line2d_57">
    <path clip-path="url(#p26a8256953)" d="
M613.98 354.692
L714.42 354.692
L714.42 350.851
L613.98 350.851
L613.98 354.692" style="fill:none;stroke:#4c72b0;stroke-linecap:round;stroke-width:1.75;"/>
   </g>
   <g id="line2d_58">
    <path clip-path="url(#p26a8256953)" d="
M613.98 352.996
L714.42 352.996" style="fill:none;stroke:#c44e52;stroke-linecap:round;stroke-width:1.75;"/>
   </g>
   <g id="line2d_59">
    <g clip-path="url(#p26a8256953)">
     <use style="fill:#0000ff;" x="664.2" xlink:href="#mfe7611bb55" y="323.062497139"/>
     <use style="fill:#0000ff;" x="664.2" xlink:href="#mfe7611bb55" y="344.015913963"/>
     <use style="fill:#0000ff;" x="664.2" xlink:href="#mfe7611bb55" y="343.167799473"/>
     <use style="fill:#0000ff;" x="664.2" xlink:href="#mfe7611bb55" y="341.07245779"/>
     <use style="fill:#0000ff;" x="664.2" xlink:href="#mfe7611bb55" y="342.968243122"/>
     <use style="fill:#0000ff;" x="664.2" xlink:href="#mfe7611bb55" y="344.415026665"/>
     <use style="fill:#0000ff;" x="664.2" xlink:href="#mfe7611bb55" y="335.834103584"/>
     <use style="fill:#0000ff;" x="664.2" xlink:href="#mfe7611bb55" y="337.879556179"/>
     <use style="fill:#0000ff;" x="664.2" xlink:href="#mfe7611bb55" y="165.113645554"/>
     <use style="fill:#0000ff;" x="664.2" xlink:href="#mfe7611bb55" y="335.385101795"/>
     <use style="fill:#0000ff;" x="664.2" xlink:href="#mfe7611bb55" y="337.480443478"/>
     <use style="fill:#0000ff;" x="664.2" xlink:href="#mfe7611bb55" y="340.87290144"/>
     <use style="fill:#0000ff;" x="664.2" xlink:href="#mfe7611bb55" y="107.741194725"/>
     <use style="fill:#0000ff;" x="664.2" xlink:href="#mfe7611bb55" y="337.280887127"/>
     <use style="fill:#0000ff;" x="664.2" xlink:href="#mfe7611bb55" y="164.215641975"/>
     <use style="fill:#0000ff;" x="664.2" xlink:href="#mfe7611bb55" y="337.081330776"/>
     <use style="fill:#0000ff;" x="664.2" xlink:href="#mfe7611bb55" y="344.614583015"/>
     <use style="fill:#0000ff;" x="664.2" xlink:href="#mfe7611bb55" y="338.777559757"/>
     <use style="fill:#0000ff;" x="664.2" xlink:href="#mfe7611bb55" y="178.434031963"/>
     <use style="fill:#0000ff;" x="664.2" xlink:href="#mfe7611bb55" y="341.920572281"/>
     <use style="fill:#0000ff;" x="664.2" xlink:href="#mfe7611bb55" y="337.081330776"/>
     <use style="fill:#0000ff;" x="664.2" xlink:href="#mfe7611bb55" y="173.445123196"/>
     <use style="fill:#0000ff;" x="664.2" xlink:href="#mfe7611bb55" y="345.063584805"/>
     <use style="fill:#0000ff;" x="664.2" xlink:href="#mfe7611bb55" y="334.137874603"/>
     <use style="fill:#0000ff;" x="664.2" xlink:href="#mfe7611bb55" y="181.626933575"/>
     <use style="fill:#0000ff;" x="664.2" xlink:href="#mfe7611bb55" y="292.929488182"/>
     <use style="fill:#0000ff;" x="664.2" xlink:href="#mfe7611bb55" y="337.081330776"/>
     <use style="fill:#0000ff;" x="664.2" xlink:href="#mfe7611bb55" y="334.137874603"/>
     <use style="fill:#0000ff;" x="664.2" xlink:href="#mfe7611bb55" y="342.968243122"/>
     <use style="fill:#0000ff;" x="664.2" xlink:href="#mfe7611bb55" y="340.2243433"/>
     <use style="fill:#0000ff;" x="664.2" xlink:href="#mfe7611bb55" y="342.269795895"/>
     <use style="fill:#0000ff;" x="664.2" xlink:href="#mfe7611bb55" y="345.063584805"/>
     <use style="fill:#0000ff;" x="664.2" xlink:href="#mfe7611bb55" y="341.272014141"/>
     <use style="fill:#0000ff;" x="664.2" xlink:href="#mfe7611bb55" y="345.013695717"/>
     <use style="fill:#0000ff;" x="664.2" xlink:href="#mfe7611bb55" y="329.348522186"/>
     <use style="fill:#0000ff;" x="664.2" xlink:href="#mfe7611bb55" y="284.348565102"/>
     <use style="fill:#0000ff;" x="664.2" xlink:href="#mfe7611bb55" y="240.845280647"/>
     <use style="fill:#0000ff;" x="664.2" xlink:href="#mfe7611bb55" y="344.415026665"/>
     <use style="fill:#0000ff;" x="664.2" xlink:href="#mfe7611bb55" y="343.367355824"/>
     <use style="fill:#0000ff;" x="664.2" xlink:href="#mfe7611bb55" y="335.385101795"/>
     <use style="fill:#0000ff;" x="664.2" xlink:href="#mfe7611bb55" y="331.84297657"/>
     <use style="fill:#0000ff;" x="664.2" xlink:href="#mfe7611bb55" y="342.968243122"/>
     <use style="fill:#0000ff;" x="664.2" xlink:href="#mfe7611bb55" y="341.671126842"/>
     <use style="fill:#0000ff;" x="664.2" xlink:href="#mfe7611bb55" y="207.968371868"/>
     <use style="fill:#0000ff;" x="664.2" xlink:href="#mfe7611bb55" y="343.766468525"/>
     <use style="fill:#0000ff;" x="664.2" xlink:href="#mfe7611bb55" y="344.814139366"/>
     <use style="fill:#0000ff;" x="664.2" xlink:href="#mfe7611bb55" y="342.269795895"/>
     <use style="fill:#0000ff;" x="664.2" xlink:href="#mfe7611bb55" y="269.481616974"/>
     <use style="fill:#0000ff;" x="664.2" xlink:href="#mfe7611bb55" y="237.901824474"/>
     <use style="fill:#0000ff;" x="664.2" xlink:href="#mfe7611bb55" y="332.890647411"/>
     <use style="fill:#0000ff;" x="664.2" xlink:href="#mfe7611bb55" y="345.063584805"/>
    </g>
   </g>
   <g id="line2d_60"/>
   <g id="line2d_61">
    <path clip-path="url(#p26a8256953)" d="
M865.08 385.174
L865.08 387.519" style="fill:none;stroke:#4c72b0;stroke-dasharray:6.000000,6.000000;stroke-dashoffset:0.0;stroke-width:1.75;"/>
   </g>
   <g id="line2d_62">
    <path clip-path="url(#p26a8256953)" d="
M865.08 381.233
L865.08 375.346" style="fill:none;stroke:#4c72b0;stroke-dasharray:6.000000,6.000000;stroke-dashoffset:0.0;stroke-width:1.75;"/>
   </g>
   <g id="line2d_63">
    <path clip-path="url(#p26a8256953)" d="
M839.97 375.346
L890.19 375.346" style="fill:none;stroke:#000000;stroke-linecap:round;stroke-width:1.75;"/>
   </g>
   <g id="line2d_64">
    <path clip-path="url(#p26a8256953)" d="
M839.97 387.519
L890.19 387.519" style="fill:none;stroke:#000000;stroke-linecap:round;stroke-width:1.75;"/>
   </g>
   <g id="line2d_65">
    <path clip-path="url(#p26a8256953)" d="
M814.86 385.174
L915.3 385.174
L915.3 381.233
L814.86 381.233
L814.86 385.174" style="fill:none;stroke:#4c72b0;stroke-linecap:round;stroke-width:1.75;"/>
   </g>
   <g id="line2d_66">
    <path clip-path="url(#p26a8256953)" d="
M814.86 383.528
L915.3 383.528" style="fill:none;stroke:#c44e52;stroke-linecap:round;stroke-width:1.75;"/>
   </g>
   <g id="line2d_67">
    <g clip-path="url(#p26a8256953)">
     <use style="fill:#0000ff;" x="865.08" xlink:href="#mfe7611bb55" y="348.356264591"/>
     <use style="fill:#0000ff;" x="865.08" xlink:href="#mfe7611bb55" y="371.604579449"/>
     <use style="fill:#0000ff;" x="865.08" xlink:href="#mfe7611bb55" y="373.699921131"/>
     <use style="fill:#0000ff;" x="865.08" xlink:href="#mfe7611bb55" y="293.977159023"/>
     <use style="fill:#0000ff;" x="865.08" xlink:href="#mfe7611bb55" y="302.558082104"/>
     <use style="fill:#0000ff;" x="865.08" xlink:href="#mfe7611bb55" y="374.947148323"/>
     <use style="fill:#0000ff;" x="865.08" xlink:href="#mfe7611bb55" y="374.548035622"/>
     <use style="fill:#0000ff;" x="865.08" xlink:href="#mfe7611bb55" y="371.405023098"/>
     <use style="fill:#0000ff;" x="865.08" xlink:href="#mfe7611bb55" y="355.88951683"/>
     <use style="fill:#0000ff;" x="865.08" xlink:href="#mfe7611bb55" y="364.470439911"/>
     <use style="fill:#0000ff;" x="865.08" xlink:href="#mfe7611bb55" y="370.956021309"/>
     <use style="fill:#0000ff;" x="865.08" xlink:href="#mfe7611bb55" y="374.099033833"/>
     <use style="fill:#0000ff;" x="865.08" xlink:href="#mfe7611bb55" y="373.50036478"/>
     <use style="fill:#0000ff;" x="865.08" xlink:href="#mfe7611bb55" y="373.899477482"/>
     <use style="fill:#0000ff;" x="865.08" xlink:href="#mfe7611bb55" y="365.518110752"/>
     <use style="fill:#0000ff;" x="865.08" xlink:href="#mfe7611bb55" y="368.262010574"/>
     <use style="fill:#0000ff;" x="865.08" xlink:href="#mfe7611bb55" y="372.053581238"/>
     <use style="fill:#0000ff;" x="865.08" xlink:href="#mfe7611bb55" y="365.318554401"/>
     <use style="fill:#0000ff;" x="865.08" xlink:href="#mfe7611bb55" y="374.298590183"/>
     <use style="fill:#0000ff;" x="865.08" xlink:href="#mfe7611bb55" y="371.804135799"/>
     <use style="fill:#0000ff;" x="865.08" xlink:href="#mfe7611bb55" y="354.642289639"/>
     <use style="fill:#0000ff;" x="865.08" xlink:href="#mfe7611bb55" y="372.402804852"/>
     <use style="fill:#0000ff;" x="865.08" xlink:href="#mfe7611bb55" y="374.747591972"/>
     <use style="fill:#0000ff;" x="865.08" xlink:href="#mfe7611bb55" y="371.854024887"/>
     <use style="fill:#0000ff;" x="865.08" xlink:href="#mfe7611bb55" y="372.452693939"/>
     <use style="fill:#0000ff;" x="865.08" xlink:href="#mfe7611bb55" y="370.357352257"/>
     <use style="fill:#0000ff;" x="865.08" xlink:href="#mfe7611bb55" y="371.654468536"/>
     <use style="fill:#0000ff;" x="865.08" xlink:href="#mfe7611bb55" y="372.00369215"/>
     <use style="fill:#0000ff;" x="865.08" xlink:href="#mfe7611bb55" y="370.107906818"/>
     <use style="fill:#0000ff;" x="865.08" xlink:href="#mfe7611bb55" y="370.556908607"/>
     <use style="fill:#0000ff;" x="865.08" xlink:href="#mfe7611bb55" y="372.851806641"/>
     <use style="fill:#0000ff;" x="865.08" xlink:href="#mfe7611bb55" y="373.699921131"/>
     <use style="fill:#0000ff;" x="865.08" xlink:href="#mfe7611bb55" y="370.357352257"/>
     <use style="fill:#0000ff;" x="865.08" xlink:href="#mfe7611bb55" y="227.624672413"/>
     <use style="fill:#0000ff;" x="865.08" xlink:href="#mfe7611bb55" y="373.899477482"/>
     <use style="fill:#0000ff;" x="865.08" xlink:href="#mfe7611bb55" y="371.405023098"/>
     <use style="fill:#0000ff;" x="865.08" xlink:href="#mfe7611bb55" y="374.747591972"/>
    </g>
   </g>
   <g id="line2d_68"/>
   <g id="line2d_69">
    <path clip-path="url(#p26a8256953)" d="
M1065.96 327.902
L1065.96 341.871" style="fill:none;stroke:#4c72b0;stroke-dasharray:6.000000,6.000000;stroke-dashoffset:0.0;stroke-width:1.75;"/>
   </g>
   <g id="line2d_70">
    <path clip-path="url(#p26a8256953)" d="
M1065.96 318.473
L1065.96 304.653" style="fill:none;stroke:#4c72b0;stroke-dasharray:6.000000,6.000000;stroke-dashoffset:0.0;stroke-width:1.75;"/>
   </g>
   <g id="line2d_71">
    <path clip-path="url(#p26a8256953)" d="
M1040.85 304.653
L1091.07 304.653" style="fill:none;stroke:#000000;stroke-linecap:round;stroke-width:1.75;"/>
   </g>
   <g id="line2d_72">
    <path clip-path="url(#p26a8256953)" d="
M1040.85 341.871
L1091.07 341.871" style="fill:none;stroke:#000000;stroke-linecap:round;stroke-width:1.75;"/>
   </g>
   <g id="line2d_73">
    <path clip-path="url(#p26a8256953)" d="
M1015.74 327.902
L1116.18 327.902
L1116.18 318.473
L1015.74 318.473
L1015.74 327.902" style="fill:none;stroke:#4c72b0;stroke-linecap:round;stroke-width:1.75;"/>
   </g>
   <g id="line2d_74">
    <path clip-path="url(#p26a8256953)" d="
M1015.74 322.663
L1116.18 322.663" style="fill:none;stroke:#c44e52;stroke-linecap:round;stroke-width:1.75;"/>
   </g>
   <g id="line2d_75">
    <g clip-path="url(#p26a8256953)">
     <use style="fill:#0000ff;" x="1065.96" xlink:href="#mfe7611bb55" y="292.929488182"/>
     <use style="fill:#0000ff;" x="1065.96" xlink:href="#mfe7611bb55" y="303.156751156"/>
     <use style="fill:#0000ff;" x="1065.96" xlink:href="#mfe7611bb55" y="300.91174221"/>
     <use style="fill:#0000ff;" x="1065.96" xlink:href="#mfe7611bb55" y="296.721058846"/>
     <use style="fill:#0000ff;" x="1065.96" xlink:href="#mfe7611bb55" y="295.673388004"/>
     <use style="fill:#0000ff;" x="1065.96" xlink:href="#mfe7611bb55" y="294.825273514"/>
     <use style="fill:#0000ff;" x="1065.96" xlink:href="#mfe7611bb55" y="288.988250256"/>
     <use style="fill:#0000ff;" x="1065.96" xlink:href="#mfe7611bb55" y="264.492708206"/>
     <use style="fill:#0000ff;" x="1065.96" xlink:href="#mfe7611bb55" y="297.120171547"/>
     <use style="fill:#0000ff;" x="1065.96" xlink:href="#mfe7611bb55" y="300.91174221"/>
     <use style="fill:#0000ff;" x="1065.96" xlink:href="#mfe7611bb55" y="299.015956879"/>
    </g>
   </g>
   <g id="line2d_76">
    <g clip-path="url(#p26a8256953)">
     <use style="fill:#0000ff;" x="1065.96" xlink:href="#mfe7611bb55" y="350.501495361"/>
     <use style="fill:#0000ff;" x="1065.96" xlink:href="#mfe7611bb55" y="353.395062447"/>
     <use style="fill:#0000ff;" x="1065.96" xlink:href="#mfe7611bb55" y="343.117910385"/>
     <use style="fill:#0000ff;" x="1065.96" xlink:href="#mfe7611bb55" y="349.653380871"/>
     <use style="fill:#0000ff;" x="1065.96" xlink:href="#mfe7611bb55" y="350.501495361"/>
     <use style="fill:#0000ff;" x="1065.96" xlink:href="#mfe7611bb55" y="348.356264591"/>
     <use style="fill:#0000ff;" x="1065.96" xlink:href="#mfe7611bb55" y="356.53807497"/>
     <use style="fill:#0000ff;" x="1065.96" xlink:href="#mfe7611bb55" y="353.594618797"/>
     <use style="fill:#0000ff;" x="1065.96" xlink:href="#mfe7611bb55" y="350.701051712"/>
     <use style="fill:#0000ff;" x="1065.96" xlink:href="#mfe7611bb55" y="353.395062447"/>
     <use style="fill:#0000ff;" x="1065.96" xlink:href="#mfe7611bb55" y="359.930532932"/>
     <use style="fill:#0000ff;" x="1065.96" xlink:href="#mfe7611bb55" y="349.852937222"/>
     <use style="fill:#0000ff;" x="1065.96" xlink:href="#mfe7611bb55" y="344.415026665"/>
     <use style="fill:#0000ff;" x="1065.96" xlink:href="#mfe7611bb55" y="344.415026665"/>
     <use style="fill:#0000ff;" x="1065.96" xlink:href="#mfe7611bb55" y="343.966024876"/>
     <use style="fill:#0000ff;" x="1065.96" xlink:href="#mfe7611bb55" y="342.718797684"/>
     <use style="fill:#0000ff;" x="1065.96" xlink:href="#mfe7611bb55" y="342.569130421"/>
     <use style="fill:#0000ff;" x="1065.96" xlink:href="#mfe7611bb55" y="344.015913963"/>
     <use style="fill:#0000ff;" x="1065.96" xlink:href="#mfe7611bb55" y="342.120128632"/>
     <use style="fill:#0000ff;" x="1065.96" xlink:href="#mfe7611bb55" y="350.301939011"/>
     <use style="fill:#0000ff;" x="1065.96" xlink:href="#mfe7611bb55" y="352.347391605"/>
     <use style="fill:#0000ff;" x="1065.96" xlink:href="#mfe7611bb55" y="345.263141155"/>
     <use style="fill:#0000ff;" x="1065.96" xlink:href="#mfe7611bb55" y="344.814139366"/>
     <use style="fill:#0000ff;" x="1065.96" xlink:href="#mfe7611bb55" y="353.444951534"/>
     <use style="fill:#0000ff;" x="1065.96" xlink:href="#mfe7611bb55" y="343.766468525"/>
     <use style="fill:#0000ff;" x="1065.96" xlink:href="#mfe7611bb55" y="350.501495361"/>
     <use style="fill:#0000ff;" x="1065.96" xlink:href="#mfe7611bb55" y="350.052493572"/>
     <use style="fill:#0000ff;" x="1065.96" xlink:href="#mfe7611bb55" y="348.356264591"/>
     <use style="fill:#0000ff;" x="1065.96" xlink:href="#mfe7611bb55" y="343.766468525"/>
     <use style="fill:#0000ff;" x="1065.96" xlink:href="#mfe7611bb55" y="348.80526638"/>
     <use style="fill:#0000ff;" x="1065.96" xlink:href="#mfe7611bb55" y="347.757595539"/>
     <use style="fill:#0000ff;" x="1065.96" xlink:href="#mfe7611bb55" y="351.100164413"/>
     <use style="fill:#0000ff;" x="1065.96" xlink:href="#mfe7611bb55" y="356.33851862"/>
     <use style="fill:#0000ff;" x="1065.96" xlink:href="#mfe7611bb55" y="348.406153679"/>
     <use style="fill:#0000ff;" x="1065.96" xlink:href="#mfe7611bb55" y="345.013695717"/>
     <use style="fill:#0000ff;" x="1065.96" xlink:href="#mfe7611bb55" y="353.395062447"/>
     <use style="fill:#0000ff;" x="1065.96" xlink:href="#mfe7611bb55" y="360.080200195"/>
     <use style="fill:#0000ff;" x="1065.96" xlink:href="#mfe7611bb55" y="343.167799473"/>
     <use style="fill:#0000ff;" x="1065.96" xlink:href="#mfe7611bb55" y="350.651162624"/>
     <use style="fill:#0000ff;" x="1065.96" xlink:href="#mfe7611bb55" y="350.052493572"/>
     <use style="fill:#0000ff;" x="1065.96" xlink:href="#mfe7611bb55" y="343.367355824"/>
     <use style="fill:#0000ff;" x="1065.96" xlink:href="#mfe7611bb55" y="353.395062447"/>
     <use style="fill:#0000ff;" x="1065.96" xlink:href="#mfe7611bb55" y="346.709924698"/>
     <use style="fill:#0000ff;" x="1065.96" xlink:href="#mfe7611bb55" y="359.681087494"/>
     <use style="fill:#0000ff;" x="1065.96" xlink:href="#mfe7611bb55" y="356.089073181"/>
     <use style="fill:#0000ff;" x="1065.96" xlink:href="#mfe7611bb55" y="345.462697506"/>
     <use style="fill:#0000ff;" x="1065.96" xlink:href="#mfe7611bb55" y="354.642289639"/>
     <use style="fill:#0000ff;" x="1065.96" xlink:href="#mfe7611bb55" y="356.138962269"/>
     <use style="fill:#0000ff;" x="1065.96" xlink:href="#mfe7611bb55" y="351.349609852"/>
     <use style="fill:#0000ff;" x="1065.96" xlink:href="#mfe7611bb55" y="350.900608063"/>
     <use style="fill:#0000ff;" x="1065.96" xlink:href="#mfe7611bb55" y="343.117910385"/>
     <use style="fill:#0000ff;" x="1065.96" xlink:href="#mfe7611bb55" y="342.120128632"/>
     <use style="fill:#0000ff;" x="1065.96" xlink:href="#mfe7611bb55" y="346.310811996"/>
     <use style="fill:#0000ff;" x="1065.96" xlink:href="#mfe7611bb55" y="345.662253857"/>
    </g>
   </g>
   <g id="patch_3">
    <path d="
M162 86.4
L1166.4 86.4" style="fill:none;stroke:#cccccc;"/>
   </g>
   <g id="patch_4">
    <path d="
M1166.4 756
L1166.4 86.4" style="fill:none;stroke:#cccccc;"/>
   </g>
   <g id="patch_5">
    <path d="
M162 756
L1166.4 756" style="fill:none;stroke:#cccccc;"/>
   </g>
   <g id="patch_6">
    <path d="
M162 756
L162 86.4" style="fill:none;stroke:#cccccc;"/>
   </g>
   <g id="text_15">
    <!-- $khmer.CountingHash.consume\_async$: time per 100 reads -->
    <defs>
     <path d="
M11.7188 12.4062
L22.0156 12.4062
L22.0156 0
L11.7188 0
z

M11.7188 51.7031
L22.0156 51.7031
L22.0156 39.3125
L11.7188 39.3125
z
" id="BitstreamVeraSans-Roman-3a"/>
     <path d="
M17.3906 -1.125
Q11.0781 -1.125 7.4375 3.64062
Q3.8125 8.40625 3.8125 14.8906
Q3.8125 21.2969 7.125 28.1719
Q10.4531 35.0625 16.0938 39.625
Q21.7344 44.1875 28.2188 44.1875
Q31.2031 44.1875 33.5469 42.5781
Q35.8906 40.9688 37.2031 38.1875
Q38.3281 42.1875 41.6094 42.1875
Q42.875 42.1875 43.7188 41.4219
Q44.5781 40.6719 44.5781 39.4062
Q44.5781 39.1094 44.5469 38.9531
Q44.5312 38.8125 44.4844 38.625
L37.5 10.6875
Q36.8125 7.71875 36.8125 5.8125
Q36.8125 1.51562 39.7031 1.51562
Q42.8281 1.51562 44.4531 5.48438
Q46.0938 9.46875 47.2188 14.7031
Q47.4062 15.2812 48 15.2812
L49.2188 15.2812
Q49.6094 15.2812 49.8438 14.9375
Q50.0938 14.5938 50.0938 14.3125
Q48.3438 7.32812 46.2656 3.09375
Q44.1875 -1.125 39.5 -1.125
Q36.1406 -1.125 33.5469 0.84375
Q30.9531 2.82812 30.3281 6.10938
Q23.875 -1.125 17.3906 -1.125
M17.4844 1.51562
Q21.0938 1.51562 24.4844 4.21875
Q27.875 6.9375 30.3281 10.5938
Q30.4219 10.6875 30.4219 10.8906
L35.7969 32.625
L35.8906 32.9062
Q35.2969 36.4688 33.3125 39.0312
Q31.3438 41.6094 27.9844 41.6094
Q24.6094 41.6094 21.7031 38.8438
Q18.7969 36.0781 16.7969 32.3281
Q14.8438 28.3281 13.0625 21.3438
Q11.2812 14.3594 11.2812 10.5
Q11.2812 7.03125 12.7656 4.26562
Q14.2656 1.51562 17.4844 1.51562" id="Cmmi10-61"/>
     <path d="
M11.7188 11.9219
Q11.7188 7.5625 13.9375 4.53125
Q16.1562 1.51562 20.3125 1.51562
Q26.2656 1.51562 31.75 4.25
Q37.25 6.98438 40.7188 11.8125
Q41.0156 12.1094 41.5 12.1094
Q42 12.1094 42.5 11.5469
Q43.0156 10.9844 43.0156 10.5
Q43.0156 10.1094 42.8281 9.90625
Q39.1562 4.78125 32.9531 1.82812
Q26.7656 -1.125 20.125 -1.125
Q15.3281 -1.125 11.6719 1.14062
Q8.01562 3.42188 6 7.21875
Q4 11.0312 4 15.8281
Q4 22.5625 7.76562 29.2031
Q11.5312 35.8438 17.7812 40.0156
Q24.0312 44.1875 30.9062 44.1875
Q35.4062 44.1875 38.9844 42.0156
Q42.5781 39.8438 42.5781 35.5938
Q42.5781 32.8594 40.9844 30.9219
Q39.4062 29 36.7188 29
Q35.1094 29 34 30
Q32.9062 31 32.9062 32.625
Q32.9062 34.9688 34.6094 36.625
Q36.3281 38.2812 38.625 38.2812
L38.8125 38.2812
Q37.6406 39.9844 35.4219 40.7969
Q33.2031 41.6094 30.8125 41.6094
Q24.9531 41.6094 20.5469 36.5938
Q16.1562 31.5938 13.9375 24.625
Q11.7188 17.6719 11.7188 11.9219" id="Cmmi10-63"/>
     <path d="
M14.5938 21.5781
Q14.5938 15.5781 16.9062 11.0156
Q19.2344 6.45312 23.6562 3.875
Q28.0781 1.3125 34.0781 1.3125
Q40.375 1.3125 46.2031 4.53125
Q52.0469 7.76562 56.1719 13.1562
Q60.2969 18.5625 61.8125 24.6094
Q62.0156 25.2031 62.5938 25.2031
L63.8125 25.2031
Q64.2031 25.2031 64.4531 24.9219
Q64.7031 24.6562 64.7031 24.3125
Q64.7031 24.2188 64.5938 24.0312
Q62.8906 17.0938 57.9844 11.0156
Q53.0781 4.9375 46.2344 1.35938
Q39.4062 -2.20312 32.1719 -2.20312
Q24.3594 -2.20312 18.1562 1.3125
Q11.9688 4.82812 8.51562 11.0781
Q5.07812 17.3281 5.07812 25.2031
Q5.07812 33.5938 8.82812 41.8125
Q12.5938 50.0469 18.9375 56.4688
Q25.2969 62.8906 33.4219 66.7031
Q41.5469 70.5156 49.9062 70.5156
Q53.2188 70.5156 56.25 69.5
Q59.2812 68.5 61.8594 66.4531
Q64.4531 64.4062 66.1094 61.7188
L74.0312 70.3125
Q74.0312 70.5156 74.5156 70.5156
L75.0938 70.5156
Q75.4844 70.5156 75.7344 70.1719
Q75.9844 69.8281 75.9844 69.4844
L69.1875 42.4844
Q69.1875 41.7969 68.4062 41.7969
L66.6094 41.7969
Q65.8281 41.7969 65.8281 42.9219
Q66.2188 45.125 66.2188 48.1875
Q66.2188 53.0781 64.5469 57.3906
Q62.8906 61.7188 59.3906 64.3594
Q55.9062 67 50.875 67
Q42.7188 67 35.9375 62.8906
Q29.1562 58.7969 24.4375 52.125
Q19.7344 45.4531 17.1562 37.3281
Q14.5938 29.2031 14.5938 21.5781" id="Cmmi10-43"/>
     <path d="
M1.42188 -14.3125
Q1.42188 -11.8594 3.09375 -10.0312
Q4.78125 -8.20312 7.17188 -8.20312
Q8.79688 -8.20312 9.89062 -9.20312
Q10.9844 -10.2031 10.9844 -11.8125
Q10.9844 -13.625 9.95312 -15.0625
Q8.9375 -16.5 7.32812 -17.0938
Q10.0156 -17.9219 15.7188 -17.9219
Q20.3125 -17.9219 24.125 -14.375
Q27.9375 -10.8438 29.1094 -6.20312
L31.9844 5.51562
Q26.5625 0 20.7031 0
Q16.4062 0 13.3438 2.1875
Q10.2969 4.39062 8.6875 8.04688
Q7.07812 11.7188 7.07812 15.8281
Q7.07812 20.4062 8.95312 25.4375
Q10.8438 30.4688 14.2344 34.7656
Q17.625 39.0625 22.0156 41.625
Q26.4219 44.1875 31.2969 44.1875
Q34.2344 44.1875 36.5781 42.5781
Q38.9219 40.9688 40.2812 38.2812
Q41.2656 42.1875 44.5781 42.1875
Q45.8438 42.1875 46.7188 41.4219
Q47.6094 40.6719 47.6094 39.4062
Q47.6094 39.1094 47.5781 38.9531
Q47.5625 38.8125 47.5156 38.625
L36.0781 -6.78125
Q35.2969 -9.90625 33.2031 -12.5
Q31.1094 -15.0938 28.2656 -16.8281
Q25.4375 -18.5625 22.0625 -19.5312
Q18.7031 -20.5156 15.5781 -20.5156
Q9.85938 -20.5156 5.64062 -19.4062
Q1.42188 -18.3125 1.42188 -14.3125
M20.9062 2.59375
Q27.2969 2.59375 33.5 11.375
L39.0156 33.2031
Q38.3281 36.6719 36.2812 39.1406
Q34.2344 41.6094 31.1094 41.6094
Q27.7812 41.6094 24.8281 38.8906
Q21.875 36.1875 19.9219 32.4219
Q18.0625 28.8125 16.3281 22.0469
Q14.5938 15.2812 14.5938 11.375
Q14.5938 7.95312 16.1562 5.26562
Q17.7188 2.59375 20.9062 2.59375" id="Cmmi10-67"/>
     <path d="
M7.8125 7.17188
Q7.8125 9.03125 8.59375 11.0781
L16.7031 32.625
Q18.0156 36.2812 18.0156 38.625
Q18.0156 41.6094 15.8281 41.6094
Q11.8594 41.6094 9.29688 37.5312
Q6.73438 33.4531 5.51562 28.4219
Q5.32812 27.7812 4.6875 27.7812
L3.51562 27.7812
Q2.6875 27.7812 2.6875 28.7188
L2.6875 29
Q4.29688 34.9688 7.60938 39.5781
Q10.9375 44.1875 16.0156 44.1875
Q19.5781 44.1875 22.0469 41.8438
Q24.5156 39.5 24.5156 35.8906
Q24.5156 34.0312 23.6875 31.9844
L15.5781 10.5
Q14.2031 7.17188 14.2031 4.5
Q14.2031 1.51562 16.5 1.51562
Q20.4062 1.51562 23.0156 5.6875
Q25.6406 9.85938 26.7031 14.7031
Q26.9062 15.2812 27.4844 15.2812
L28.7188 15.2812
Q29.1094 15.2812 29.3438 15.0156
Q29.5938 14.75 29.5938 14.4062
Q29.5938 14.3125 29.5 14.1094
Q28.125 8.45312 24.7344 3.65625
Q21.3438 -1.125 16.3125 -1.125
Q12.7969 -1.125 10.2969 1.29688
Q7.8125 3.71875 7.8125 7.17188
M19.0938 60.5938
Q19.0938 62.7031 20.8438 64.4062
Q22.6094 66.1094 24.7031 66.1094
Q26.4219 66.1094 27.5156 65.0625
Q28.6094 64.0156 28.6094 62.4062
Q28.6094 60.1562 26.8281 58.4688
Q25.0469 56.7812 22.9062 56.7812
Q21.2969 56.7812 20.1875 57.875
Q19.0938 58.9844 19.0938 60.5938" id="Cmmi10-69"/>
     <path d="
M20.125 -1.125
Q15.3281 -1.125 11.7344 1.35938
Q8.15625 3.85938 6.26562 8.07812
Q4.39062 12.3125 4.39062 17
Q4.39062 24.125 7.98438 30.3906
Q11.5781 36.6719 17.7188 40.4219
Q23.875 44.1875 30.9062 44.1875
Q35.2031 44.1875 38.4062 41.9688
Q41.6094 39.75 41.6094 35.5938
Q41.6094 29.8281 37.0156 27.0156
Q32.4219 24.2188 26.6562 23.5625
Q20.9062 22.9062 13.9219 22.9062
L13.625 22.9062
Q12.0156 16.9375 12.0156 12.7031
Q12.0156 8.25 14.0625 4.875
Q16.1094 1.51562 20.3125 1.51562
Q26.2656 1.51562 31.75 4.25
Q37.25 6.98438 40.7188 11.8125
Q41.0156 12.1094 41.5 12.1094
Q42 12.1094 42.5 11.5469
Q43.0156 10.9844 43.0156 10.5
Q43.0156 10.1094 42.8281 9.90625
Q39.1562 4.78125 32.9531 1.82812
Q26.7656 -1.125 20.125 -1.125
M14.2031 25.4844
Q20.0156 25.4844 24.9531 26.0156
Q29.8906 26.5625 33.8906 28.7344
Q37.8906 30.9062 37.8906 35.5
Q37.8906 37.3594 36.8594 38.75
Q35.8438 40.1406 34.2031 40.875
Q32.5625 41.6094 30.8125 41.6094
Q26.5625 41.6094 23.1719 39.3125
Q19.7812 37.0156 17.5781 33.3281
Q15.375 29.6406 14.2031 25.4844" id="Cmmi10-65"/>
     <path d="
M4.6875 0
Q3.71875 0 3.71875 1.3125
Q3.76562 1.5625 3.90625 2.17188
Q4.04688 2.78125 4.3125 3.14062
Q4.59375 3.51562 4.98438 3.51562
Q11.0781 3.51562 13.4844 4.20312
Q14.7969 4.64062 15.375 6.89062
L29.1094 61.8125
Q29.2969 62.7969 29.2969 63.1875
Q29.2969 64.2656 28.0781 64.4062
Q26.2188 64.7969 20.9062 64.7969
Q19.9219 64.7969 19.9219 66.1094
Q20.2656 67.3906 20.4531 67.8438
Q20.6562 68.3125 21.5781 68.3125
L48.4844 68.3125
Q49.5156 68.3125 49.5156 67
Q49.4688 66.75 49.3125 66.1562
Q49.1719 65.5781 48.9219 65.1875
Q48.6875 64.7969 48.1875 64.7969
Q42.0938 64.7969 39.7031 64.1094
Q38.375 63.625 37.7969 61.375
L31.7812 37.3125
L61.8125 37.3125
L67.9219 61.8125
Q68.1094 62.7969 68.1094 63.1875
Q68.1094 64.2656 66.8906 64.4062
Q64.9844 64.7969 59.7188 64.7969
Q58.6875 64.7969 58.6875 66.1094
Q59.0312 67.3906 59.2188 67.8438
Q59.4219 68.3125 60.4062 68.3125
L87.3125 68.3125
Q88.2812 68.3125 88.2812 67
Q88.2344 66.75 88.0781 66.1406
Q87.9375 65.5312 87.6719 65.1562
Q87.4062 64.7969 87.0156 64.7969
Q80.9062 64.7969 78.5156 64.1094
Q77.2031 63.6719 76.6094 61.375
L62.8906 6.5
Q62.7031 5.51562 62.7031 5.07812
Q62.7031 4.04688 63.9219 3.90625
Q65.8281 3.51562 71.0938 3.51562
Q72.125 3.51562 72.125 2.20312
Q71.8281 1.03125 71.5312 0.515625
Q71.2344 0 70.4062 0
L43.5 0
Q42.4844 0 42.4844 1.3125
Q42.6719 2.04688 42.7656 2.39062
Q42.875 2.73438 43.1406 3.125
Q43.4062 3.51562 43.7969 3.51562
Q49.9062 3.51562 52.2969 4.20312
Q53.6094 4.64062 54.2031 6.89062
L60.8906 33.7969
L30.9062 33.7969
L24.125 6.5
Q23.875 5.28125 23.875 5.07812
Q23.875 4.04688 25.0938 3.90625
Q27 3.51562 32.3281 3.51562
Q33.2969 3.51562 33.2969 2.20312
Q32.9531 0.875 32.7344 0.4375
Q32.5156 0 31.5938 0
z
" id="Cmmi10-48"/>
     <path d="
M5.32812 1.8125
Q5.32812 2.39062 5.42188 2.6875
L19.9219 60.5
Q20.3125 62.2031 20.4062 63.1875
Q20.4062 64.7969 13.9219 64.7969
Q12.8906 64.7969 12.8906 66.1094
Q12.9375 66.3594 13.1094 66.9844
Q13.2812 67.625 13.5469 67.9688
Q13.8125 68.3125 14.3125 68.3125
L27.7812 69.3906
L28.0781 69.3906
Q28.0781 69.2812 28.4219 69.1094
Q28.7656 68.9531 28.8125 68.8906
Q29 68.4062 29 68.1094
L21.1875 36.9219
Q27.3438 44.1875 35.7969 44.1875
Q39.3125 44.1875 41.875 42.9688
Q44.4375 41.75 45.875 39.2812
Q47.3125 36.8125 47.3125 33.4062
Q47.3125 29.2969 45.4844 23.4844
Q43.6562 17.6719 40.9219 10.5
Q39.5 7.23438 39.5 4.5
Q39.5 1.51562 41.7969 1.51562
Q45.7031 1.51562 48.3125 5.6875
Q50.9219 9.85938 52 14.7031
Q52.2031 15.2812 52.7812 15.2812
L54 15.2812
Q54.3906 15.2812 54.6406 15.0156
Q54.8906 14.75 54.8906 14.4062
Q54.8906 14.3125 54.7812 14.1094
Q53.9062 10.5 52.1719 7
Q50.4375 3.51562 47.7969 1.1875
Q45.1719 -1.125 41.6094 -1.125
Q38.0938 -1.125 35.5938 1.29688
Q33.1094 3.71875 33.1094 7.17188
Q33.1094 9.03125 33.8906 11.0781
Q36.7188 18.6094 38.5938 24.5156
Q40.4844 30.4219 40.4844 34.9062
Q40.4844 37.7969 39.3594 39.7031
Q38.2344 41.6094 35.5938 41.6094
Q30.2188 41.6094 26.2188 38.3125
Q22.2188 35.0156 19.2812 29.5938
L12.5 2.29688
Q12.1094 0.78125 10.9844 -0.171875
Q9.85938 -1.125 8.40625 -1.125
Q7.125 -1.125 6.21875 -0.265625
Q5.32812 0.59375 5.32812 1.8125" id="Cmmi10-68"/>
     <path d="
M18.3125 70.2188
L18.3125 54.6875
L36.8125 54.6875
L36.8125 47.7031
L18.3125 47.7031
L18.3125 18.0156
Q18.3125 11.3281 20.1406 9.42188
Q21.9688 7.51562 27.5938 7.51562
L36.8125 7.51562
L36.8125 0
L27.5938 0
Q17.1875 0 13.2344 3.875
Q9.28125 7.76562 9.28125 18.0156
L9.28125 47.7031
L2.6875 47.7031
L2.6875 54.6875
L9.28125 54.6875
L9.28125 70.2188
z
" id="BitstreamVeraSans-Roman-74"/>
     <path d="
M18.1094 8.20312
L18.1094 -20.7969
L9.07812 -20.7969
L9.07812 54.6875
L18.1094 54.6875
L18.1094 46.3906
Q20.9531 51.2656 25.2656 53.625
Q29.5938 56 35.5938 56
Q45.5625 56 51.7812 48.0938
Q58.0156 40.1875 58.0156 27.2969
Q58.0156 14.4062 51.7812 6.48438
Q45.5625 -1.42188 35.5938 -1.42188
Q29.5938 -1.42188 25.2656 0.953125
Q20.9531 3.32812 18.1094 8.20312
M48.6875 27.2969
Q48.6875 37.2031 44.6094 42.8438
Q40.5312 48.4844 33.4062 48.4844
Q26.2656 48.4844 22.1875 42.8438
Q18.1094 37.2031 18.1094 27.2969
Q18.1094 17.3906 22.1875 11.75
Q26.2656 6.10938 33.4062 6.10938
Q40.5312 6.10938 44.6094 11.75
Q48.6875 17.3906 48.6875 27.2969" id="BitstreamVeraSans-Roman-70"/>
     <path d="
M8.89062 -9.51562
Q7.46875 -9.28125 6.53125 -8.29688
Q5.60938 -7.32812 5.60938 -6
Q5.60938 -4.59375 6.53125 -3.60938
Q7.46875 -2.64062 8.89062 -2.48438
L43.5 -2.48438
Q44.9219 -2.64062 45.8438 -3.5625
Q46.7812 -4.5 46.7812 -6
Q46.7812 -7.42188 45.8438 -8.34375
Q44.9219 -9.28125 43.5 -9.51562
z
" id="Cmtt10-5f"/>
     <path d="
M5.32812 1.8125
Q5.32812 2.39062 5.42188 2.6875
L19.9219 60.5
Q20.3125 62.2031 20.4062 63.1875
Q20.4062 64.7969 13.9219 64.7969
Q12.8906 64.7969 12.8906 66.1094
Q12.9375 66.3594 13.1094 66.9844
Q13.2812 67.625 13.5469 67.9688
Q13.8125 68.3125 14.3125 68.3125
L27.7812 69.3906
L28.0781 69.3906
Q28.0781 69.2812 28.4219 69.1094
Q28.7656 68.9531 28.8125 68.8906
Q29 68.4062 29 68.1094
L18.5 26.3125
Q22.125 27.8281 27.6094 33.5156
Q33.1094 39.2031 36.2031 41.6875
Q39.3125 44.1875 44 44.1875
Q46.7812 44.1875 48.7344 42.2812
Q50.6875 40.375 50.6875 37.5938
Q50.6875 35.8438 49.9531 34.3438
Q49.2188 32.8594 47.8906 31.9219
Q46.5781 31 44.8281 31
Q43.2188 31 42.1094 32
Q41.0156 33.0156 41.0156 34.625
Q41.0156 37.0156 42.7031 38.6406
Q44.3906 40.2812 46.7812 40.2812
Q45.7969 41.6094 43.7969 41.6094
Q40.8281 41.6094 38.0625 39.8906
Q35.2969 38.1875 32.0938 34.9844
Q28.9062 31.7812 26.2656 29.125
Q23.6406 26.4688 21.3906 25.0938
Q27.2969 24.4219 31.6406 22
Q35.9844 19.5781 35.9844 14.5938
Q35.9844 13.5781 35.5938 12.0156
Q34.7188 8.25 34.7188 6
Q34.7188 1.51562 37.7969 1.51562
Q41.4062 1.51562 43.2812 5.46875
Q45.1719 9.42188 46.3906 14.7031
Q46.5781 15.2812 47.2188 15.2812
L48.3906 15.2812
Q48.7812 15.2812 49.0469 15.0312
Q49.3125 14.7969 49.3125 14.4062
Q49.3125 14.3125 49.2188 14.1094
Q45.4531 -1.125 37.5938 -1.125
Q34.7656 -1.125 32.5938 0.1875
Q30.4219 1.51562 29.25 3.78125
Q28.0781 6.0625 28.0781 8.89062
Q28.0781 10.5 28.5156 12.2031
Q28.8125 13.375 28.8125 14.4062
Q28.8125 18.2656 25.3906 20.2656
Q21.9688 22.2656 17.5781 22.7031
L12.5 2.29688
Q12.1094 0.78125 10.9844 -0.171875
Q9.85938 -1.125 8.40625 -1.125
Q7.125 -1.125 6.21875 -0.265625
Q5.32812 0.59375 5.32812 1.8125" id="Cmmi10-6b"/>
     <path d="
M7.71875 1.70312
Q7.71875 2.29688 7.8125 2.59375
L15.2812 32.4219
Q16.0156 35.2031 16.0156 37.3125
Q16.0156 41.6094 13.0938 41.6094
Q9.96875 41.6094 8.45312 37.8594
Q6.9375 34.125 5.51562 28.4219
Q5.51562 28.125 5.21875 27.9531
Q4.9375 27.7812 4.6875 27.7812
L3.51562 27.7812
Q3.17188 27.7812 2.92188 28.1406
Q2.6875 28.5156 2.6875 28.8125
Q3.76562 33.1562 4.76562 36.1719
Q5.76562 39.2031 7.89062 41.6875
Q10.0156 44.1875 13.1875 44.1875
Q16.9375 44.1875 19.8125 41.8125
Q22.7031 39.4531 22.7031 35.7969
Q25.6875 39.7031 29.6875 41.9375
Q33.6875 44.1875 38.1875 44.1875
Q41.75 44.1875 44.3281 42.9688
Q46.9219 41.75 48.3594 39.2812
Q49.8125 36.8125 49.8125 33.4062
Q49.8125 29.2969 47.9688 23.4844
Q46.1406 17.6719 43.4062 10.5
Q42 7.23438 42 4.5
Q42 1.51562 44.2812 1.51562
Q48.1875 1.51562 50.7969 5.70312
Q53.4219 9.90625 54.5 14.7031
Q54.6875 15.2812 55.3281 15.2812
L56.5 15.2812
Q56.8906 15.2812 57.1562 15.0312
Q57.4219 14.7969 57.4219 14.4062
Q57.4219 14.3125 57.3281 14.1094
Q55.9531 8.45312 52.5625 3.65625
Q49.1719 -1.125 44.0938 -1.125
Q40.5781 -1.125 38.0781 1.29688
Q35.5938 3.71875 35.5938 7.17188
Q35.5938 9.03125 36.375 11.0781
Q37.6406 14.3594 39.2812 18.8906
Q40.9219 23.4375 41.9688 27.5781
Q43.0156 31.7344 43.0156 34.9062
Q43.0156 37.7031 41.8594 39.6562
Q40.7188 41.6094 37.9844 41.6094
Q34.3281 41.6094 31.25 39.9844
Q28.1719 38.375 25.875 35.7188
Q23.5781 33.0625 21.6875 29.3906
L14.8906 2.20312
Q14.5469 0.828125 13.3438 -0.140625
Q12.1562 -1.125 10.6875 -1.125
Q9.46875 -1.125 8.59375 -0.34375
Q7.71875 0.4375 7.71875 1.70312" id="Cmmi10-6e"/>
     <path d="
M7.71875 1.70312
Q7.71875 2.29688 7.8125 2.59375
L15.2812 32.4219
Q16.0156 35.2031 16.0156 37.3125
Q16.0156 41.6094 13.0938 41.6094
Q9.96875 41.6094 8.45312 37.8594
Q6.9375 34.125 5.51562 28.4219
Q5.51562 28.125 5.21875 27.9531
Q4.9375 27.7812 4.6875 27.7812
L3.51562 27.7812
Q3.17188 27.7812 2.92188 28.1406
Q2.6875 28.5156 2.6875 28.8125
Q3.76562 33.1562 4.76562 36.1719
Q5.76562 39.2031 7.89062 41.6875
Q10.0156 44.1875 13.1875 44.1875
Q16.9375 44.1875 19.8125 41.8125
Q22.7031 39.4531 22.7031 35.7969
Q25.6875 39.7031 29.6875 41.9375
Q33.6875 44.1875 38.1875 44.1875
Q42.9219 44.1875 46.3594 41.7656
Q49.8125 39.3594 49.8125 34.9062
Q52.875 39.2656 57 41.7188
Q61.1406 44.1875 66.0156 44.1875
Q71.1875 44.1875 74.3281 41.375
Q77.4844 38.5781 77.4844 33.4062
Q77.4844 29.2969 75.6562 23.4844
Q73.8281 17.6719 71.0938 10.5
Q69.6719 7.03125 69.6719 4.5
Q69.6719 1.51562 72.0156 1.51562
Q75.9219 1.51562 78.5156 5.70312
Q81.1094 9.90625 82.1719 14.7031
Q82.4688 15.2812 83.0156 15.2812
L84.1875 15.2812
Q84.5781 15.2812 84.8438 15.0156
Q85.1094 14.75 85.1094 14.4062
Q85.1094 14.3125 85.0156 14.1094
Q83.6406 8.45312 80.25 3.65625
Q76.8594 -1.125 71.7812 -1.125
Q68.2656 -1.125 65.7656 1.29688
Q63.2812 3.71875 63.2812 7.17188
Q63.2812 8.9375 64.1094 11.0781
Q66.9375 18.6094 68.8125 24.5156
Q70.7031 30.4219 70.7031 34.9062
Q70.7031 37.7031 69.5781 39.6562
Q68.4531 41.6094 65.8281 41.6094
Q60.3594 41.6094 56.3438 38.25
Q52.3438 34.9062 49.4219 29.3906
Q49.2188 28.4219 49.125 27.875
L42.6719 2.20312
Q42.3281 0.828125 41.125 -0.140625
Q39.9375 -1.125 38.4844 -1.125
Q37.3125 -1.125 36.4062 -0.34375
Q35.5 0.4375 35.5 1.70312
Q35.5 2.29688 35.5938 2.59375
L42 28.0781
Q43.0156 32.1719 43.0156 34.9062
Q43.0156 37.7031 41.8594 39.6562
Q40.7188 41.6094 37.9844 41.6094
Q34.3281 41.6094 31.25 39.9844
Q28.1719 38.375 25.875 35.7188
Q23.5781 33.0625 21.6875 29.3906
L14.8906 2.20312
Q14.5469 0.828125 13.3438 -0.140625
Q12.1562 -1.125 10.6875 -1.125
Q9.46875 -1.125 8.59375 -0.34375
Q7.71875 0.4375 7.71875 1.70312" id="Cmmi10-6d"/>
     <path d="
M20.125 -1.125
Q15.375 -1.125 11.6875 1.125
Q8.01562 3.375 6 7.17188
Q4 10.9844 4 15.8281
Q4 22.6094 7.78125 29.25
Q11.5781 35.8906 17.8438 40.0312
Q24.125 44.1875 31 44.1875
Q34.7188 44.1875 37.625 42.9219
Q40.5312 41.6562 42.6719 39.3594
Q44.8281 37.0625 45.9688 33.9844
Q47.125 30.9062 47.125 27.2969
Q47.125 22.0781 44.9219 17.0156
Q42.7188 11.9688 38.8906 7.84375
Q35.0625 3.71875 30.125 1.29688
Q25.2031 -1.125 20.125 -1.125
M20.3125 1.51562
Q24.75 1.51562 28.4375 4.53125
Q32.125 7.5625 34.4844 12.1719
Q36.8594 16.7969 38.125 21.9219
Q39.4062 27.0469 39.4062 31.2031
Q39.4062 35.5469 37.2344 38.5781
Q35.0625 41.6094 30.8125 41.6094
Q24.9531 41.6094 20.5469 36.5938
Q16.1562 31.5938 13.9375 24.625
Q11.7188 17.6719 11.7188 11.9219
Q11.7188 7.5625 13.9375 4.53125
Q16.1562 1.51562 20.3125 1.51562" id="Cmmi10-6f"/>
     <path d="
M8.40625 5.51562
Q8.40625 7.76562 10.0625 9.375
Q11.7188 10.9844 13.9219 10.9844
Q15.2812 10.9844 16.5938 10.25
Q17.9219 9.51562 18.6562 8.20312
Q19.3906 6.89062 19.3906 5.51562
Q19.3906 3.32812 17.7656 1.65625
Q16.1562 0 13.9219 0
Q11.7188 0 10.0625 1.65625
Q8.40625 3.32812 8.40625 5.51562" id="Cmmi10-3a"/>
     <path d="
M7.71875 1.70312
Q7.71875 2.29688 7.8125 2.59375
L15.2812 32.4219
Q16.0156 35.2031 16.0156 37.3125
Q16.0156 41.6094 13.0938 41.6094
Q9.96875 41.6094 8.45312 37.8594
Q6.9375 34.125 5.51562 28.4219
Q5.51562 28.125 5.21875 27.9531
Q4.9375 27.7812 4.6875 27.7812
L3.51562 27.7812
Q3.17188 27.7812 2.92188 28.1406
Q2.6875 28.5156 2.6875 28.8125
Q3.76562 33.1562 4.76562 36.1719
Q5.76562 39.2031 7.89062 41.6875
Q10.0156 44.1875 13.1875 44.1875
Q16.6562 44.1875 19.2656 42.1875
Q21.875 40.1875 22.5156 36.9219
Q25.0469 40.2344 28.2969 42.2031
Q31.5469 44.1875 35.4062 44.1875
Q38.5781 44.1875 40.9844 42.3281
Q43.4062 40.4844 43.4062 37.3125
Q43.4062 34.7656 41.8125 32.875
Q40.2344 31 37.5938 31
Q35.9844 31 34.8906 32
Q33.7969 33.0156 33.7969 34.625
Q33.7969 36.8125 35.4062 38.5469
Q37.0156 40.2812 39.1094 40.2812
Q37.5 41.6094 35.2031 41.6094
Q30.9062 41.6094 27.7344 38.5469
Q24.5625 35.5 22.0156 30.8125
L14.8906 2.20312
Q14.5469 0.828125 13.3438 -0.140625
Q12.1562 -1.125 10.6875 -1.125
Q9.46875 -1.125 8.59375 -0.34375
Q7.71875 0.4375 7.71875 1.70312" id="Cmmi10-72"/>
     <path d="
M8.6875 6.10938
Q11.375 1.51562 19.4844 1.51562
Q23 1.51562 26.1719 2.70312
Q29.3438 3.90625 31.4219 6.29688
Q33.5 8.6875 33.5 12.1094
Q33.5 14.7031 31.6406 16.3594
Q29.7812 18.0156 27.0938 18.6094
L21.6875 19.6719
Q17.9688 20.6094 15.5781 23.1406
Q13.1875 25.6875 13.1875 29.2969
Q13.1875 33.7344 15.5938 37.1562
Q18.0156 40.5781 21.9688 42.375
Q25.9219 44.1875 30.1719 44.1875
Q34.7188 44.1875 38.2969 42.0156
Q41.8906 39.8438 41.8906 35.5938
Q41.8906 33.2969 40.5938 31.5312
Q39.3125 29.7812 37.0156 29.7812
Q35.6875 29.7812 34.7344 30.6406
Q33.7969 31.5 33.7969 32.8125
Q33.7969 33.9844 34.4531 35.0781
Q35.1094 36.1875 36.2031 36.8438
Q37.3125 37.5 38.4844 37.5
Q37.5938 39.6562 35.1719 40.625
Q32.7656 41.6094 29.9844 41.6094
Q27.4375 41.6094 24.8906 40.5781
Q22.3594 39.5469 20.8125 37.5625
Q19.2812 35.5938 19.2812 32.9062
Q19.2812 31.1094 20.5469 29.7344
Q21.8281 28.375 23.6875 27.7812
L29.5 26.6094
Q32.2812 26.0312 34.5938 24.5312
Q36.9219 23.0469 38.25 20.7656
Q39.5938 18.5 39.5938 15.5781
Q39.5938 11.8594 37.5156 8.25
Q35.4531 4.64062 32.4219 2.48438
Q27.0938 -1.125 19.3906 -1.125
Q14.0625 -1.125 9.60938 1.3125
Q5.17188 3.76562 5.17188 8.59375
Q5.17188 11.3281 6.75 13.3438
Q8.34375 15.375 11.0781 15.375
Q12.7031 15.375 13.7969 14.3906
Q14.8906 13.4219 14.8906 11.8125
Q14.8906 9.51562 13.1719 7.8125
Q11.4688 6.10938 9.1875 6.10938
z
" id="Cmmi10-73"/>
     <path d="
M6.20312 8.10938
Q6.20312 9.57812 6.5 10.8906
L13.7188 39.5938
L3.21875 39.5938
Q2.20312 39.5938 2.20312 40.9219
Q2.59375 43.1094 3.51562 43.1094
L14.5938 43.1094
L18.6094 59.4219
Q19 60.75 20.1719 61.6719
Q21.3438 62.5938 22.7969 62.5938
Q24.0781 62.5938 24.9219 61.8281
Q25.7812 61.0781 25.7812 59.8125
Q25.7812 59.5156 25.75 59.3438
Q25.7344 59.1875 25.6875 58.9844
L21.6875 43.1094
L31.9844 43.1094
Q33.0156 43.1094 33.0156 41.7969
Q32.9531 41.5469 32.8125 40.9531
Q32.6719 40.375 32.4219 39.9844
Q32.1719 39.5938 31.6875 39.5938
L20.7969 39.5938
L13.625 10.6875
Q12.8906 7.85938 12.8906 5.8125
Q12.8906 1.51562 15.8281 1.51562
Q20.2188 1.51562 23.6094 5.64062
Q27 9.76562 28.8125 14.7031
Q29.2031 15.2812 29.5938 15.2812
L30.8125 15.2812
Q31.2031 15.2812 31.4375 15.0156
Q31.6875 14.75 31.6875 14.4062
Q31.6875 14.2031 31.5938 14.1094
Q29.3906 8.0625 25.1875 3.46875
Q21 -1.125 15.5781 -1.125
Q11.625 -1.125 8.90625 1.45312
Q6.20312 4.04688 6.20312 8.10938" id="Cmmi10-74"/>
     <path d="
M10.5938 10.8906
Q10.5938 14.1562 11.4688 17.5938
Q12.3594 21.0469 13.9375 25.2656
Q15.5312 29.5 16.7031 32.625
Q18.0156 36.2812 18.0156 38.625
Q18.0156 41.6094 15.8281 41.6094
Q11.8594 41.6094 9.29688 37.5312
Q6.73438 33.4531 5.51562 28.4219
Q5.32812 27.7812 4.6875 27.7812
L3.51562 27.7812
Q2.6875 27.7812 2.6875 28.7188
L2.6875 29
Q4.29688 34.9688 7.60938 39.5781
Q10.9375 44.1875 16.0156 44.1875
Q19.5781 44.1875 22.0469 41.8438
Q24.5156 39.5 24.5156 35.8906
Q24.5156 34.0312 23.6875 31.9844
Q23.25 30.7656 21.6875 26.6562
Q20.125 22.5625 19.2812 19.875
Q18.4531 17.1875 17.9219 14.5938
Q17.3906 12.0156 17.3906 9.42188
Q17.3906 6.10938 18.7969 3.8125
Q20.2188 1.51562 23.3906 1.51562
Q29.7812 1.51562 34.625 9.42188
Q34.7188 9.8125 34.7812 10.1719
Q34.8594 10.5469 34.9062 10.8906
L42.0938 39.8906
Q42.4375 41.2188 43.6562 42.1562
Q44.875 43.1094 46.2969 43.1094
Q47.5156 43.1094 48.4062 42.3281
Q49.3125 41.5469 49.3125 40.2812
Q49.3125 39.7031 49.2188 39.5
L42 10.6875
Q41.3125 7.71875 41.3125 5.8125
Q41.3125 1.51562 44.1875 1.51562
Q47.4062 1.51562 49 5.48438
Q50.5938 9.46875 51.7031 14.7031
Q51.9062 15.2812 52.4844 15.2812
L53.7188 15.2812
Q54.1094 15.2812 54.3438 14.9375
Q54.5938 14.5938 54.5938 14.3125
Q53.5156 10.0156 52.5156 6.9375
Q51.5156 3.85938 49.3594 1.35938
Q47.2188 -1.125 44 -1.125
Q40.8281 -1.125 38.3125 0.609375
Q35.7969 2.34375 34.9062 5.32812
Q32.625 2.39062 29.5938 0.625
Q26.5625 -1.125 23.1875 -1.125
Q17.4375 -1.125 14.0156 2.01562
Q10.5938 5.17188 10.5938 10.8906" id="Cmmi10-75"/>
     <path d="
M8.40625 -14.3125
Q10.5 -17.9219 15.7188 -17.9219
Q20.4531 -17.9219 23.9219 -14.5938
Q27.3906 -11.2812 29.5156 -6.5625
Q31.6406 -1.85938 32.8125 3.07812
Q28.375 -1.125 23.1875 -1.125
Q19.2344 -1.125 16.4531 0.234375
Q13.6719 1.60938 12.125 4.3125
Q10.5938 7.03125 10.5938 10.8906
Q10.5938 14.1562 11.4688 17.5938
Q12.3594 21.0469 13.9375 25.2656
Q15.5312 29.5 16.7031 32.625
Q18.0156 36.2812 18.0156 38.625
Q18.0156 41.6094 15.8281 41.6094
Q11.8594 41.6094 9.29688 37.5312
Q6.73438 33.4531 5.51562 28.4219
Q5.32812 27.7812 4.6875 27.7812
L3.51562 27.7812
Q2.6875 27.7812 2.6875 28.7188
L2.6875 29
Q4.29688 34.9688 7.60938 39.5781
Q10.9375 44.1875 16.0156 44.1875
Q19.5781 44.1875 22.0469 41.8438
Q24.5156 39.5 24.5156 35.8906
Q24.5156 34.0312 23.6875 31.9844
Q23.25 30.7656 21.6875 26.6562
Q20.125 22.5625 19.2812 19.875
Q18.4531 17.1875 17.9219 14.5938
Q17.3906 12.0156 17.3906 9.42188
Q17.3906 6.10938 18.7969 3.8125
Q20.2188 1.51562 23.2969 1.51562
Q29.5 1.51562 34.4219 9.07812
L42 39.8906
Q42.3281 41.2188 43.5469 42.1562
Q44.7812 43.1094 46.1875 43.1094
Q47.4062 43.1094 48.3125 42.3281
Q49.2188 41.5469 49.2188 40.2812
Q49.2188 39.7031 49.125 39.5
L39.2031 -0.296875
Q37.8906 -5.42188 34.375 -10.1094
Q30.8594 -14.7969 25.9062 -17.6562
Q20.9531 -20.5156 15.5781 -20.5156
Q12.9844 -20.5156 10.4375 -19.5
Q7.90625 -18.5 6.34375 -16.5
Q4.78125 -14.5 4.78125 -11.8125
Q4.78125 -9.07812 6.39062 -7.07812
Q8.01562 -5.07812 10.6875 -5.07812
Q12.3125 -5.07812 13.4062 -6.07812
Q14.5 -7.07812 14.5 -8.6875
Q14.5 -10.9844 12.7812 -12.6875
Q11.0781 -14.4062 8.79688 -14.4062
Q8.6875 -14.3594 8.59375 -14.3281
Q8.5 -14.3125 8.40625 -14.3125" id="Cmmi10-79"/>
    </defs>
    <g style="fill:#262626;" transform="translate(337.92 81.4)scale(0.24 -0.24)">
     <use transform="translate(0.0 0.015625)" xlink:href="#Cmmi10-6b"/>
     <use transform="translate(52.001953125 0.015625)" xlink:href="#Cmmi10-68"/>
     <use transform="translate(109.619140625 0.015625)" xlink:href="#Cmmi10-6d"/>
     <use transform="translate(197.412109375 0.015625)" xlink:href="#Cmmi10-65"/>
     <use transform="translate(243.896484375 0.015625)" xlink:href="#Cmmi10-72"/>
     <use transform="translate(289.013671875 0.015625)" xlink:href="#Cmmi10-3a"/>
     <use transform="translate(317.556640625 0.015625)" xlink:href="#Cmmi10-43"/>
     <use transform="translate(388.943359375 0.015625)" xlink:href="#Cmmi10-6f"/>
     <use transform="translate(437.33203125 0.015625)" xlink:href="#Cmmi10-75"/>
     <use transform="translate(494.509765625 0.015625)" xlink:href="#Cmmi10-6e"/>
     <use transform="translate(554.51953125 0.015625)" xlink:href="#Cmmi10-74"/>
     <use transform="translate(590.603515625 0.015625)" xlink:href="#Cmmi10-69"/>
     <use transform="translate(625.02734375 0.015625)" xlink:href="#Cmmi10-6e"/>
     <use transform="translate(685.037109375 0.015625)" xlink:href="#Cmmi10-67"/>
     <use transform="translate(732.7421875 0.015625)" xlink:href="#Cmmi10-48"/>
     <use transform="translate(815.84765625 0.015625)" xlink:href="#Cmmi10-61"/>
     <use transform="translate(868.630859375 0.015625)" xlink:href="#Cmmi10-73"/>
     <use transform="translate(915.408203125 0.015625)" xlink:href="#Cmmi10-68"/>
     <use transform="translate(973.025390625 0.015625)" xlink:href="#Cmmi10-3a"/>
     <use transform="translate(1001.56835938 0.015625)" xlink:href="#Cmmi10-63"/>
     <use transform="translate(1044.78125 0.015625)" xlink:href="#Cmmi10-6f"/>
     <use transform="translate(1093.16992188 0.015625)" xlink:href="#Cmmi10-6e"/>
     <use transform="translate(1153.1796875 0.015625)" xlink:href="#Cmmi10-73"/>
     <use transform="translate(1199.95703125 0.015625)" xlink:href="#Cmmi10-75"/>
     <use transform="translate(1257.13476562 0.015625)" xlink:href="#Cmmi10-6d"/>
     <use transform="translate(1344.92773438 0.015625)" xlink:href="#Cmmi10-65"/>
     <use transform="translate(1391.41210938 0.015625)" xlink:href="#Cmtt10-5f"/>
     <use transform="translate(1443.90234375 0.015625)" xlink:href="#Cmmi10-61"/>
     <use transform="translate(1496.68554688 0.015625)" xlink:href="#Cmmi10-73"/>
     <use transform="translate(1543.46289062 0.015625)" xlink:href="#Cmmi10-79"/>
     <use transform="translate(1592.48632812 0.015625)" xlink:href="#Cmmi10-6e"/>
     <use transform="translate(1652.49609375 0.015625)" xlink:href="#Cmmi10-63"/>
     <use transform="translate(1695.70898438 0.015625)" xlink:href="#BitstreamVeraSans-Roman-3a"/>
     <use transform="translate(1729.40039062 0.015625)" xlink:href="#BitstreamVeraSans-Roman-20"/>
     <use transform="translate(1761.1875 0.015625)" xlink:href="#BitstreamVeraSans-Roman-74"/>
     <use transform="translate(1800.39648438 0.015625)" xlink:href="#BitstreamVeraSans-Roman-69"/>
     <use transform="translate(1828.1796875 0.015625)" xlink:href="#BitstreamVeraSans-Roman-6d"/>
     <use transform="translate(1925.59179688 0.015625)" xlink:href="#BitstreamVeraSans-Roman-65"/>
     <use transform="translate(1987.11523438 0.015625)" xlink:href="#BitstreamVeraSans-Roman-20"/>
     <use transform="translate(2018.90234375 0.015625)" xlink:href="#BitstreamVeraSans-Roman-70"/>
     <use transform="translate(2082.37890625 0.015625)" xlink:href="#BitstreamVeraSans-Roman-65"/>
     <use transform="translate(2143.90234375 0.015625)" xlink:href="#BitstreamVeraSans-Roman-72"/>
     <use transform="translate(2185.015625 0.015625)" xlink:href="#BitstreamVeraSans-Roman-20"/>
     <use transform="translate(2216.80273438 0.015625)" xlink:href="#BitstreamVeraSans-Roman-31"/>
     <use transform="translate(2280.42578125 0.015625)" xlink:href="#BitstreamVeraSans-Roman-30"/>
     <use transform="translate(2344.04882812 0.015625)" xlink:href="#BitstreamVeraSans-Roman-30"/>
     <use transform="translate(2407.671875 0.015625)" xlink:href="#BitstreamVeraSans-Roman-20"/>
     <use transform="translate(2439.45898438 0.015625)" xlink:href="#BitstreamVeraSans-Roman-72"/>
     <use transform="translate(2480.57226562 0.015625)" xlink:href="#BitstreamVeraSans-Roman-65"/>
     <use transform="translate(2542.09570312 0.015625)" xlink:href="#BitstreamVeraSans-Roman-61"/>
     <use transform="translate(2603.375 0.015625)" xlink:href="#BitstreamVeraSans-Roman-64"/>
     <use transform="translate(2666.8515625 0.015625)" xlink:href="#BitstreamVeraSans-Roman-73"/>
    </g>
   </g>
  </g>
 </g>
 <defs>
  <clipPath id="p26a8256953">
   <rect height="669.6" width="1004.4" x="162.0" y="86.4"/>
  </clipPath>
 </defs>
</svg>
