<?xml version="1.0" encoding="utf-8" standalone="no"?>
<!DOCTYPE svg PUBLIC "-//W3C//DTD SVG 1.1//EN"
  "http://www.w3.org/Graphics/SVG/1.1/DTD/svg11.dtd">
<!-- Created with matplotlib (http://matplotlib.org/) -->
<svg height="864pt" version="1.1" viewBox="0 0 1296 864" width="1296pt" xmlns="http://www.w3.org/2000/svg" xmlns:xlink="http://www.w3.org/1999/xlink">
 <defs>
  <style type="text/css">
*{stroke-linecap:butt;stroke-linejoin:round;}
  </style>
 </defs>
 <g id="figure_1">
  <g id="patch_1">
   <path d="
M0 864
L1296 864
L1296 0
L0 0
z
" style="fill:#ffffff;"/>
  </g>
  <g id="axes_1">
   <g id="patch_2">
    <path d="
M162 756
L1166.4 756
L1166.4 86.4
L162 86.4
z
" style="fill:#ffffff;"/>
   </g>
   <g id="matplotlib.axis_1">
    <g id="xtick_1">
     <g id="line2d_1">
      <path clip-path="url(#p26a8256953)" d="
M287.55 756
L287.55 86.4" style="fill:none;stroke:#cccccc;stroke-linecap:round;"/>
     </g>
     <g id="line2d_2">
      <defs>
       <path d="
M0 0
L0 0" id="m219da94a98" style="stroke:#262626;"/>
      </defs>
      <g>
       <use style="fill:#262626;stroke:#262626;" x="287.55" xlink:href="#m219da94a98" y="756.0"/>
      </g>
     </g>
     <g id="line2d_3">
      <g>
       <use style="fill:#262626;stroke:#262626;" x="287.55" xlink:href="#m219da94a98" y="86.4"/>
      </g>
     </g>
     <g id="text_1">
      <!-- 1 -->
      <defs>
       <path d="
M12.4062 8.29688
L28.5156 8.29688
L28.5156 63.9219
L10.9844 60.4062
L10.9844 69.3906
L28.4219 72.9062
L38.2812 72.9062
L38.2812 8.29688
L54.3906 8.29688
L54.3906 0
L12.4062 0
z
" id="BitstreamVeraSans-Roman-31"/>
      </defs>
      <g style="fill:#262626;" transform="translate(284.0775 775.1575)scale(0.16 -0.16)">
       <use xlink:href="#BitstreamVeraSans-Roman-31"/>
      </g>
     </g>
    </g>
    <g id="xtick_2">
     <g id="line2d_4">
      <path clip-path="url(#p26a8256953)" d="
M538.65 756
L538.65 86.4" style="fill:none;stroke:#cccccc;stroke-linecap:round;"/>
     </g>
     <g id="line2d_5">
      <g>
       <use style="fill:#262626;stroke:#262626;" x="538.65" xlink:href="#m219da94a98" y="756.0"/>
      </g>
     </g>
     <g id="line2d_6">
      <g>
       <use style="fill:#262626;stroke:#262626;" x="538.65" xlink:href="#m219da94a98" y="86.4"/>
      </g>
     </g>
     <g id="text_2">
      <!-- 2 -->
      <defs>
       <path d="
M19.1875 8.29688
L53.6094 8.29688
L53.6094 0
L7.32812 0
L7.32812 8.29688
Q12.9375 14.1094 22.625 23.8906
Q32.3281 33.6875 34.8125 36.5312
Q39.5469 41.8438 41.4219 45.5312
Q43.3125 49.2188 43.3125 52.7812
Q43.3125 58.5938 39.2344 62.25
Q35.1562 65.9219 28.6094 65.9219
Q23.9688 65.9219 18.8125 64.3125
Q13.6719 62.7031 7.8125 59.4219
L7.8125 69.3906
Q13.7656 71.7812 18.9375 73
Q24.125 74.2188 28.4219 74.2188
Q39.75 74.2188 46.4844 68.5469
Q53.2188 62.8906 53.2188 53.4219
Q53.2188 48.9219 51.5312 44.8906
Q49.8594 40.875 45.4062 35.4062
Q44.1875 33.9844 37.6406 27.2188
Q31.1094 20.4531 19.1875 8.29688" id="BitstreamVeraSans-Roman-32"/>
      </defs>
      <g style="fill:#262626;" transform="translate(534.9475 775.1575)scale(0.16 -0.16)">
       <use xlink:href="#BitstreamVeraSans-Roman-32"/>
      </g>
     </g>
    </g>
    <g id="xtick_3">
     <g id="line2d_7">
      <path clip-path="url(#p26a8256953)" d="
M789.75 756
L789.75 86.4" style="fill:none;stroke:#cccccc;stroke-linecap:round;"/>
     </g>
     <g id="line2d_8">
      <g>
       <use style="fill:#262626;stroke:#262626;" x="789.75" xlink:href="#m219da94a98" y="756.0"/>
      </g>
     </g>
     <g id="line2d_9">
      <g>
       <use style="fill:#262626;stroke:#262626;" x="789.75" xlink:href="#m219da94a98" y="86.4"/>
      </g>
     </g>
     <g id="text_3">
      <!-- 3 -->
      <defs>
       <path d="
M40.5781 39.3125
Q47.6562 37.7969 51.625 33
Q55.6094 28.2188 55.6094 21.1875
Q55.6094 10.4062 48.1875 4.48438
Q40.7656 -1.42188 27.0938 -1.42188
Q22.5156 -1.42188 17.6562 -0.515625
Q12.7969 0.390625 7.625 2.20312
L7.625 11.7188
Q11.7188 9.32812 16.5938 8.10938
Q21.4844 6.89062 26.8125 6.89062
Q36.0781 6.89062 40.9375 10.5469
Q45.7969 14.2031 45.7969 21.1875
Q45.7969 27.6406 41.2812 31.2656
Q36.7656 34.9062 28.7188 34.9062
L20.2188 34.9062
L20.2188 43.0156
L29.1094 43.0156
Q36.375 43.0156 40.2344 45.9219
Q44.0938 48.8281 44.0938 54.2969
Q44.0938 59.9062 40.1094 62.9062
Q36.1406 65.9219 28.7188 65.9219
Q24.6562 65.9219 20.0156 65.0312
Q15.375 64.1562 9.8125 62.3125
L9.8125 71.0938
Q15.4375 72.6562 20.3438 73.4375
Q25.25 74.2188 29.5938 74.2188
Q40.8281 74.2188 47.3594 69.1094
Q53.9062 64.0156 53.9062 55.3281
Q53.9062 49.2656 50.4375 45.0938
Q46.9688 40.9219 40.5781 39.3125" id="BitstreamVeraSans-Roman-33"/>
      </defs>
      <g style="fill:#262626;" transform="translate(785.91125 775.1575)scale(0.16 -0.16)">
       <use xlink:href="#BitstreamVeraSans-Roman-33"/>
      </g>
     </g>
    </g>
    <g id="xtick_4">
     <g id="line2d_10">
      <path clip-path="url(#p26a8256953)" d="
M1040.85 756
L1040.85 86.4" style="fill:none;stroke:#cccccc;stroke-linecap:round;"/>
     </g>
     <g id="line2d_11">
      <g>
       <use style="fill:#262626;stroke:#262626;" x="1040.85" xlink:href="#m219da94a98" y="756.0"/>
      </g>
     </g>
     <g id="line2d_12">
      <g>
       <use style="fill:#262626;stroke:#262626;" x="1040.85" xlink:href="#m219da94a98" y="86.4"/>
      </g>
     </g>
     <g id="text_4">
      <!-- 4 -->
      <defs>
       <path d="
M37.7969 64.3125
L12.8906 25.3906
L37.7969 25.3906
z

M35.2031 72.9062
L47.6094 72.9062
L47.6094 25.3906
L58.0156 25.3906
L58.0156 17.1875
L47.6094 17.1875
L47.6094 0
L37.7969 0
L37.7969 17.1875
L4.89062 17.1875
L4.89062 26.7031
z
" id="BitstreamVeraSans-Roman-34"/>
      </defs>
      <g style="fill:#262626;" transform="translate(1036.6 775.1575)scale(0.16 -0.16)">
       <use xlink:href="#BitstreamVeraSans-Roman-34"/>
      </g>
     </g>
    </g>
    <g id="text_5">
     <!-- Num Threads -->
     <defs>
      <path id="BitstreamVeraSans-Roman-20"/>
      <path d="
M9.8125 72.9062
L23.0938 72.9062
L55.4219 11.9219
L55.4219 72.9062
L64.9844 72.9062
L64.9844 0
L51.7031 0
L19.3906 60.9844
L19.3906 0
L9.8125 0
z
" id="BitstreamVeraSans-Roman-4e"/>
      <path d="
M52 44.1875
Q55.375 50.25 60.0625 53.125
Q64.75 56 71.0938 56
Q79.6406 56 84.2812 50.0156
Q88.9219 44.0469 88.9219 33.0156
L88.9219 0
L79.8906 0
L79.8906 32.7188
Q79.8906 40.5781 77.0938 44.375
Q74.3125 48.1875 68.6094 48.1875
Q61.625 48.1875 57.5625 43.5469
Q53.5156 38.9219 53.5156 30.9062
L53.5156 0
L44.4844 0
L44.4844 32.7188
Q44.4844 40.625 41.7031 44.4062
Q38.9219 48.1875 33.1094 48.1875
Q26.2188 48.1875 22.1562 43.5312
Q18.1094 38.875 18.1094 30.9062
L18.1094 0
L9.07812 0
L9.07812 54.6875
L18.1094 54.6875
L18.1094 46.1875
Q21.1875 51.2188 25.4844 53.6094
Q29.7812 56 35.6875 56
Q41.6562 56 45.8281 52.9688
Q50 49.9531 52 44.1875" id="BitstreamVeraSans-Roman-6d"/>
      <path d="
M-0.296875 72.9062
L61.375 72.9062
L61.375 64.5938
L35.5 64.5938
L35.5 0
L25.5938 0
L25.5938 64.5938
L-0.296875 64.5938
z
" id="BitstreamVeraSans-Roman-54"/>
      <path d="
M54.8906 33.0156
L54.8906 0
L45.9062 0
L45.9062 32.7188
Q45.9062 40.4844 42.875 44.3281
Q39.8438 48.1875 33.7969 48.1875
Q26.5156 48.1875 22.3125 43.5469
Q18.1094 38.9219 18.1094 30.9062
L18.1094 0
L9.07812 0
L9.07812 75.9844
L18.1094 75.9844
L18.1094 46.1875
Q21.3438 51.125 25.7031 53.5625
Q30.0781 56 35.7969 56
Q45.2188 56 50.0469 50.1719
Q54.8906 44.3438 54.8906 33.0156" id="BitstreamVeraSans-Roman-68"/>
      <path d="
M56.2031 29.5938
L56.2031 25.2031
L14.8906 25.2031
Q15.4844 15.9219 20.4844 11.0625
Q25.4844 6.20312 34.4219 6.20312
Q39.5938 6.20312 44.4531 7.46875
Q49.3125 8.73438 54.1094 11.2812
L54.1094 2.78125
Q49.2656 0.734375 44.1875 -0.34375
Q39.1094 -1.42188 33.8906 -1.42188
Q20.7969 -1.42188 13.1562 6.1875
Q5.51562 13.8125 5.51562 26.8125
Q5.51562 40.2344 12.7656 48.1094
Q20.0156 56 32.3281 56
Q43.3594 56 49.7812 48.8906
Q56.2031 41.7969 56.2031 29.5938
M47.2188 32.2344
Q47.125 39.5938 43.0938 43.9844
Q39.0625 48.3906 32.4219 48.3906
Q24.9062 48.3906 20.3906 44.1406
Q15.875 39.8906 15.1875 32.1719
z
" id="BitstreamVeraSans-Roman-65"/>
      <path d="
M45.4062 46.3906
L45.4062 75.9844
L54.3906 75.9844
L54.3906 0
L45.4062 0
L45.4062 8.20312
Q42.5781 3.32812 38.25 0.953125
Q33.9375 -1.42188 27.875 -1.42188
Q17.9688 -1.42188 11.7344 6.48438
Q5.51562 14.4062 5.51562 27.2969
Q5.51562 40.1875 11.7344 48.0938
Q17.9688 56 27.875 56
Q33.9375 56 38.25 53.625
Q42.5781 51.2656 45.4062 46.3906
M14.7969 27.2969
Q14.7969 17.3906 18.875 11.75
Q22.9531 6.10938 30.0781 6.10938
Q37.2031 6.10938 41.2969 11.75
Q45.4062 17.3906 45.4062 27.2969
Q45.4062 37.2031 41.2969 42.8438
Q37.2031 48.4844 30.0781 48.4844
Q22.9531 48.4844 18.875 42.8438
Q14.7969 37.2031 14.7969 27.2969" id="BitstreamVeraSans-Roman-64"/>
      <path d="
M34.2812 27.4844
Q23.3906 27.4844 19.1875 25
Q14.9844 22.5156 14.9844 16.5
Q14.9844 11.7188 18.1406 8.90625
Q21.2969 6.10938 26.7031 6.10938
Q34.1875 6.10938 38.7031 11.4062
Q43.2188 16.7031 43.2188 25.4844
L43.2188 27.4844
z

M52.2031 31.2031
L52.2031 0
L43.2188 0
L43.2188 8.29688
Q40.1406 3.32812 35.5469 0.953125
Q30.9531 -1.42188 24.3125 -1.42188
Q15.9219 -1.42188 10.9531 3.29688
Q6 8.01562 6 15.9219
Q6 25.1406 12.1719 29.8281
Q18.3594 34.5156 30.6094 34.5156
L43.2188 34.5156
L43.2188 35.4062
Q43.2188 41.6094 39.1406 45
Q35.0625 48.3906 27.6875 48.3906
Q23 48.3906 18.5469 47.2656
Q14.1094 46.1406 10.0156 43.8906
L10.0156 52.2031
Q14.9375 54.1094 19.5781 55.0469
Q24.2188 56 28.6094 56
Q40.4844 56 46.3438 49.8438
Q52.2031 43.7031 52.2031 31.2031" id="BitstreamVeraSans-Roman-61"/>
      <path d="
M8.5 21.5781
L8.5 54.6875
L17.4844 54.6875
L17.4844 21.9219
Q17.4844 14.1562 20.5 10.2656
Q23.5312 6.39062 29.5938 6.39062
Q36.8594 6.39062 41.0781 11.0312
Q45.3125 15.6719 45.3125 23.6875
L45.3125 54.6875
L54.2969 54.6875
L54.2969 0
L45.3125 0
L45.3125 8.40625
Q42.0469 3.42188 37.7188 1
Q33.4062 -1.42188 27.6875 -1.42188
Q18.2656 -1.42188 13.375 4.4375
Q8.5 10.2969 8.5 21.5781" id="BitstreamVeraSans-Roman-75"/>
      <path d="
M41.1094 46.2969
Q39.5938 47.1719 37.8125 47.5781
Q36.0312 48 33.8906 48
Q26.2656 48 22.1875 43.0469
Q18.1094 38.0938 18.1094 28.8125
L18.1094 0
L9.07812 0
L9.07812 54.6875
L18.1094 54.6875
L18.1094 46.1875
Q20.9531 51.1719 25.4844 53.5781
Q30.0312 56 36.5312 56
Q37.4531 56 38.5781 55.875
Q39.7031 55.7656 41.0625 55.5156
z
" id="BitstreamVeraSans-Roman-72"/>
      <path d="
M44.2812 53.0781
L44.2812 44.5781
Q40.4844 46.5312 36.375 47.5
Q32.2812 48.4844 27.875 48.4844
Q21.1875 48.4844 17.8438 46.4375
Q14.5 44.3906 14.5 40.2812
Q14.5 37.1562 16.8906 35.375
Q19.2812 33.5938 26.5156 31.9844
L29.5938 31.2969
Q39.1562 29.25 43.1875 25.5156
Q47.2188 21.7812 47.2188 15.0938
Q47.2188 7.46875 41.1875 3.01562
Q35.1562 -1.42188 24.6094 -1.42188
Q20.2188 -1.42188 15.4531 -0.5625
Q10.6875 0.296875 5.42188 2
L5.42188 11.2812
Q10.4062 8.6875 15.2344 7.39062
Q20.0625 6.10938 24.8125 6.10938
Q31.1562 6.10938 34.5625 8.28125
Q37.9844 10.4531 37.9844 14.4062
Q37.9844 18.0625 35.5156 20.0156
Q33.0625 21.9688 24.7031 23.7812
L21.5781 24.5156
Q13.2344 26.2656 9.51562 29.9062
Q5.8125 33.5469 5.8125 39.8906
Q5.8125 47.6094 11.2812 51.7969
Q16.75 56 26.8125 56
Q31.7812 56 36.1719 55.2656
Q40.5781 54.5469 44.2812 53.0781" id="BitstreamVeraSans-Roman-73"/>
     </defs>
     <g style="fill:#262626;" transform="translate(597.7796875 798.681875)scale(0.2 -0.2)">
      <use xlink:href="#BitstreamVeraSans-Roman-4e"/>
      <use x="74.8046875" xlink:href="#BitstreamVeraSans-Roman-75"/>
      <use x="138.18359375" xlink:href="#BitstreamVeraSans-Roman-6d"/>
      <use x="235.595703125" xlink:href="#BitstreamVeraSans-Roman-20"/>
      <use x="267.3828125" xlink:href="#BitstreamVeraSans-Roman-54"/>
      <use x="328.466796875" xlink:href="#BitstreamVeraSans-Roman-68"/>
      <use x="391.845703125" xlink:href="#BitstreamVeraSans-Roman-72"/>
      <use x="430.708984375" xlink:href="#BitstreamVeraSans-Roman-65"/>
      <use x="492.232421875" xlink:href="#BitstreamVeraSans-Roman-61"/>
      <use x="553.51171875" xlink:href="#BitstreamVeraSans-Roman-64"/>
      <use x="616.98828125" xlink:href="#BitstreamVeraSans-Roman-73"/>
     </g>
    </g>
   </g>
   <g id="matplotlib.axis_2">
    <g id="ytick_1">
     <g id="line2d_13">
      <path clip-path="url(#p26a8256953)" d="
M162 756
L1166.4 756" style="fill:none;stroke:#cccccc;stroke-linecap:round;"/>
     </g>
     <g id="line2d_14">
      <g>
       <use style="fill:#262626;stroke:#262626;" x="162.0" xlink:href="#m219da94a98" y="756.0"/>
      </g>
     </g>
     <g id="line2d_15">
      <g>
       <use style="fill:#262626;stroke:#262626;" x="1166.4" xlink:href="#m219da94a98" y="756.0"/>
      </g>
     </g>
     <g id="text_6">
      <!-- 0.0 -->
      <defs>
       <path d="
M31.7812 66.4062
Q24.1719 66.4062 20.3281 58.9062
Q16.5 51.4219 16.5 36.375
Q16.5 21.3906 20.3281 13.8906
Q24.1719 6.39062 31.7812 6.39062
Q39.4531 6.39062 43.2812 13.8906
Q47.125 21.3906 47.125 36.375
Q47.125 51.4219 43.2812 58.9062
Q39.4531 66.4062 31.7812 66.4062
M31.7812 74.2188
Q44.0469 74.2188 50.5156 64.5156
Q56.9844 54.8281 56.9844 36.375
Q56.9844 17.9688 50.5156 8.26562
Q44.0469 -1.42188 31.7812 -1.42188
Q19.5312 -1.42188 13.0625 8.26562
Q6.59375 17.9688 6.59375 36.375
Q6.59375 54.8281 13.0625 64.5156
Q19.5312 74.2188 31.7812 74.2188" id="BitstreamVeraSans-Roman-30"/>
       <path d="
M10.6875 12.4062
L21 12.4062
L21 0
L10.6875 0
z
" id="BitstreamVeraSans-Roman-2e"/>
      </defs>
      <g style="fill:#262626;" transform="translate(128.7565625 760.966875)scale(0.18 -0.18)">
       <use xlink:href="#BitstreamVeraSans-Roman-30"/>
       <use x="63.623046875" xlink:href="#BitstreamVeraSans-Roman-2e"/>
       <use x="95.41015625" xlink:href="#BitstreamVeraSans-Roman-30"/>
      </g>
     </g>
    </g>
    <g id="ytick_2">
     <g id="line2d_16">
      <path clip-path="url(#p26a8256953)" d="
M162 651.375
L1166.4 651.375" style="fill:none;stroke:#cccccc;stroke-linecap:round;"/>
     </g>
     <g id="line2d_17">
      <g>
       <use style="fill:#262626;stroke:#262626;" x="162.0" xlink:href="#m219da94a98" y="651.375"/>
      </g>
     </g>
     <g id="line2d_18">
      <g>
       <use style="fill:#262626;stroke:#262626;" x="1166.4" xlink:href="#m219da94a98" y="651.375"/>
      </g>
     </g>
     <g id="text_7">
      <!-- 0.5 -->
      <defs>
       <path d="
M10.7969 72.9062
L49.5156 72.9062
L49.5156 64.5938
L19.8281 64.5938
L19.8281 46.7344
Q21.9688 47.4688 24.1094 47.8281
Q26.2656 48.1875 28.4219 48.1875
Q40.625 48.1875 47.75 41.5
Q54.8906 34.8125 54.8906 23.3906
Q54.8906 11.625 47.5625 5.09375
Q40.2344 -1.42188 26.9062 -1.42188
Q22.3125 -1.42188 17.5469 -0.640625
Q12.7969 0.140625 7.71875 1.70312
L7.71875 11.625
Q12.1094 9.23438 16.7969 8.0625
Q21.4844 6.89062 26.7031 6.89062
Q35.1562 6.89062 40.0781 11.3281
Q45.0156 15.7656 45.0156 23.3906
Q45.0156 31 40.0781 35.4375
Q35.1562 39.8906 26.7031 39.8906
Q22.75 39.8906 18.8125 39.0156
Q14.8906 38.1406 10.7969 36.2812
z
" id="BitstreamVeraSans-Roman-35"/>
      </defs>
      <g style="fill:#262626;" transform="translate(129.1334375 656.341875)scale(0.18 -0.18)">
       <use xlink:href="#BitstreamVeraSans-Roman-30"/>
       <use x="63.623046875" xlink:href="#BitstreamVeraSans-Roman-2e"/>
       <use x="95.41015625" xlink:href="#BitstreamVeraSans-Roman-35"/>
      </g>
     </g>
    </g>
    <g id="ytick_3">
     <g id="line2d_19">
      <path clip-path="url(#p26a8256953)" d="
M162 546.75
L1166.4 546.75" style="fill:none;stroke:#cccccc;stroke-linecap:round;"/>
     </g>
     <g id="line2d_20">
      <g>
       <use style="fill:#262626;stroke:#262626;" x="162.0" xlink:href="#m219da94a98" y="546.75"/>
      </g>
     </g>
     <g id="line2d_21">
      <g>
       <use style="fill:#262626;stroke:#262626;" x="1166.4" xlink:href="#m219da94a98" y="546.75"/>
      </g>
     </g>
     <g id="text_8">
      <!-- 1.0 -->
      <g style="fill:#262626;" transform="translate(129.546875 551.716875)scale(0.18 -0.18)">
       <use xlink:href="#BitstreamVeraSans-Roman-31"/>
       <use x="63.623046875" xlink:href="#BitstreamVeraSans-Roman-2e"/>
       <use x="95.41015625" xlink:href="#BitstreamVeraSans-Roman-30"/>
      </g>
     </g>
    </g>
    <g id="ytick_4">
     <g id="line2d_22">
      <path clip-path="url(#p26a8256953)" d="
M162 442.125
L1166.4 442.125" style="fill:none;stroke:#cccccc;stroke-linecap:round;"/>
     </g>
     <g id="line2d_23">
      <g>
       <use style="fill:#262626;stroke:#262626;" x="162.0" xlink:href="#m219da94a98" y="442.125"/>
      </g>
     </g>
     <g id="line2d_24">
      <g>
       <use style="fill:#262626;stroke:#262626;" x="1166.4" xlink:href="#m219da94a98" y="442.125"/>
      </g>
     </g>
     <g id="text_9">
      <!-- 1.5 -->
      <g style="fill:#262626;" transform="translate(129.92375 447.091875)scale(0.18 -0.18)">
       <use xlink:href="#BitstreamVeraSans-Roman-31"/>
       <use x="63.623046875" xlink:href="#BitstreamVeraSans-Roman-2e"/>
       <use x="95.41015625" xlink:href="#BitstreamVeraSans-Roman-35"/>
      </g>
     </g>
    </g>
    <g id="ytick_5">
     <g id="line2d_25">
      <path clip-path="url(#p26a8256953)" d="
M162 337.5
L1166.4 337.5" style="fill:none;stroke:#cccccc;stroke-linecap:round;"/>
     </g>
     <g id="line2d_26">
      <g>
       <use style="fill:#262626;stroke:#262626;" x="162.0" xlink:href="#m219da94a98" y="337.5"/>
      </g>
     </g>
     <g id="line2d_27">
      <g>
       <use style="fill:#262626;stroke:#262626;" x="1166.4" xlink:href="#m219da94a98" y="337.5"/>
      </g>
     </g>
     <g id="text_10">
      <!-- 2.0 -->
      <g style="fill:#262626;" transform="translate(128.88875 342.466875)scale(0.18 -0.18)">
       <use xlink:href="#BitstreamVeraSans-Roman-32"/>
       <use x="63.623046875" xlink:href="#BitstreamVeraSans-Roman-2e"/>
       <use x="95.41015625" xlink:href="#BitstreamVeraSans-Roman-30"/>
      </g>
     </g>
    </g>
    <g id="ytick_6">
     <g id="line2d_28">
      <path clip-path="url(#p26a8256953)" d="
M162 232.875
L1166.4 232.875" style="fill:none;stroke:#cccccc;stroke-linecap:round;"/>
     </g>
     <g id="line2d_29">
      <g>
       <use style="fill:#262626;stroke:#262626;" x="162.0" xlink:href="#m219da94a98" y="232.875"/>
      </g>
     </g>
     <g id="line2d_30">
      <g>
       <use style="fill:#262626;stroke:#262626;" x="1166.4" xlink:href="#m219da94a98" y="232.875"/>
      </g>
     </g>
     <g id="text_11">
      <!-- 2.5 -->
      <g style="fill:#262626;" transform="translate(129.265625 237.841875)scale(0.18 -0.18)">
       <use xlink:href="#BitstreamVeraSans-Roman-32"/>
       <use x="63.623046875" xlink:href="#BitstreamVeraSans-Roman-2e"/>
       <use x="95.41015625" xlink:href="#BitstreamVeraSans-Roman-35"/>
      </g>
     </g>
    </g>
    <g id="ytick_7">
     <g id="line2d_31">
      <path clip-path="url(#p26a8256953)" d="
M162 128.25
L1166.4 128.25" style="fill:none;stroke:#cccccc;stroke-linecap:round;"/>
     </g>
     <g id="line2d_32">
      <g>
       <use style="fill:#262626;stroke:#262626;" x="162.0" xlink:href="#m219da94a98" y="128.25"/>
      </g>
     </g>
     <g id="line2d_33">
      <g>
       <use style="fill:#262626;stroke:#262626;" x="1166.4" xlink:href="#m219da94a98" y="128.25"/>
      </g>
     </g>
     <g id="text_12">
      <!-- 3.0 -->
      <g style="fill:#262626;" transform="translate(128.9421875 133.216875)scale(0.18 -0.18)">
       <use xlink:href="#BitstreamVeraSans-Roman-33"/>
       <use x="63.623046875" xlink:href="#BitstreamVeraSans-Roman-2e"/>
       <use x="95.41015625" xlink:href="#BitstreamVeraSans-Roman-30"/>
      </g>
     </g>
    </g>
    <g id="text_13">
     <!-- Exec Time (s) -->
     <defs>
      <path d="
M8.01562 75.875
L15.8281 75.875
Q23.1406 64.3594 26.7812 53.3125
Q30.4219 42.2812 30.4219 31.3906
Q30.4219 20.4531 26.7812 9.375
Q23.1406 -1.70312 15.8281 -13.1875
L8.01562 -13.1875
Q14.5 -2 17.7031 9.0625
Q20.9062 20.125 20.9062 31.3906
Q20.9062 42.6719 17.7031 53.6562
Q14.5 64.6562 8.01562 75.875" id="BitstreamVeraSans-Roman-29"/>
      <path d="
M31 75.875
Q24.4688 64.6562 21.2812 53.6562
Q18.1094 42.6719 18.1094 31.3906
Q18.1094 20.125 21.3125 9.0625
Q24.5156 -2 31 -13.1875
L23.1875 -13.1875
Q15.875 -1.70312 12.2344 9.375
Q8.59375 20.4531 8.59375 31.3906
Q8.59375 42.2812 12.2031 53.3125
Q15.8281 64.3594 23.1875 75.875
z
" id="BitstreamVeraSans-Roman-28"/>
      <path d="
M9.8125 72.9062
L55.9062 72.9062
L55.9062 64.5938
L19.6719 64.5938
L19.6719 43.0156
L54.3906 43.0156
L54.3906 34.7188
L19.6719 34.7188
L19.6719 8.29688
L56.7812 8.29688
L56.7812 0
L9.8125 0
z
" id="BitstreamVeraSans-Roman-45"/>
      <path d="
M9.42188 54.6875
L18.4062 54.6875
L18.4062 0
L9.42188 0
z

M9.42188 75.9844
L18.4062 75.9844
L18.4062 64.5938
L9.42188 64.5938
z
" id="BitstreamVeraSans-Roman-69"/>
      <path d="
M54.8906 54.6875
L35.1094 28.0781
L55.9062 0
L45.3125 0
L29.3906 21.4844
L13.4844 0
L2.875 0
L24.125 28.6094
L4.6875 54.6875
L15.2812 54.6875
L29.7812 35.2031
L44.2812 54.6875
z
" id="BitstreamVeraSans-Roman-78"/>
      <path d="
M48.7812 52.5938
L48.7812 44.1875
Q44.9688 46.2969 41.1406 47.3438
Q37.3125 48.3906 33.4062 48.3906
Q24.6562 48.3906 19.8125 42.8438
Q14.9844 37.3125 14.9844 27.2969
Q14.9844 17.2812 19.8125 11.7344
Q24.6562 6.20312 33.4062 6.20312
Q37.3125 6.20312 41.1406 7.25
Q44.9688 8.29688 48.7812 10.4062
L48.7812 2.09375
Q45.0156 0.34375 40.9844 -0.53125
Q36.9688 -1.42188 32.4219 -1.42188
Q20.0625 -1.42188 12.7812 6.34375
Q5.51562 14.1094 5.51562 27.2969
Q5.51562 40.6719 12.8594 48.3281
Q20.2188 56 33.0156 56
Q37.1562 56 41.1094 55.1406
Q45.0625 54.2969 48.7812 52.5938" id="BitstreamVeraSans-Roman-63"/>
     </defs>
     <g style="fill:#262626;" transform="translate(119.5971875 487.753125)rotate(-90.0)scale(0.2 -0.2)">
      <use xlink:href="#BitstreamVeraSans-Roman-45"/>
      <use x="63.18359375" xlink:href="#BitstreamVeraSans-Roman-78"/>
      <use x="119.23828125" xlink:href="#BitstreamVeraSans-Roman-65"/>
      <use x="180.76171875" xlink:href="#BitstreamVeraSans-Roman-63"/>
      <use x="235.7421875" xlink:href="#BitstreamVeraSans-Roman-20"/>
      <use x="267.529296875" xlink:href="#BitstreamVeraSans-Roman-54"/>
      <use x="325.48828125" xlink:href="#BitstreamVeraSans-Roman-69"/>
      <use x="353.271484375" xlink:href="#BitstreamVeraSans-Roman-6d"/>
      <use x="450.68359375" xlink:href="#BitstreamVeraSans-Roman-65"/>
      <use x="512.20703125" xlink:href="#BitstreamVeraSans-Roman-20"/>
      <use x="543.994140625" xlink:href="#BitstreamVeraSans-Roman-28"/>
      <use x="583.0078125" xlink:href="#BitstreamVeraSans-Roman-73"/>
      <use x="635.107421875" xlink:href="#BitstreamVeraSans-Roman-29"/>
     </g>
    </g>
   </g>
   <g id="line2d_34">
    <path clip-path="url(#p26a8256953)" d="
M287.55 188.329
L287.55 189.633" style="fill:none;stroke:#4c72b0;stroke-dasharray:6.000000,6.000000;stroke-dashoffset:0.0;stroke-width:1.75;"/>
   </g>
   <g id="line2d_35">
    <path clip-path="url(#p26a8256953)" d="
M287.55 160.361
L287.55 147.509" style="fill:none;stroke:#4c72b0;stroke-dasharray:6.000000,6.000000;stroke-dashoffset:0.0;stroke-width:1.75;"/>
   </g>
   <g id="line2d_36">
    <path clip-path="url(#p26a8256953)" d="
M259.301 147.509
L315.799 147.509" style="fill:none;stroke:#000000;stroke-linecap:round;stroke-width:1.75;"/>
   </g>
   <g id="line2d_37">
    <path clip-path="url(#p26a8256953)" d="
M259.301 189.633
L315.799 189.633" style="fill:none;stroke:#000000;stroke-linecap:round;stroke-width:1.75;"/>
   </g>
   <g id="line2d_38">
    <path clip-path="url(#p26a8256953)" d="
M231.053 188.329
L344.048 188.329
L344.048 160.361
L231.053 160.361
L231.053 188.329" style="fill:none;stroke:#4c72b0;stroke-linecap:round;stroke-width:1.75;"/>
   </g>
   <g id="line2d_39">
    <path clip-path="url(#p26a8256953)" d="
M231.053 185.898
L344.048 185.898" style="fill:none;stroke:#c44e52;stroke-linecap:round;stroke-width:1.75;"/>
   </g>
   <g id="line2d_40"/>
   <g id="line2d_41"/>
   <g id="line2d_42">
    <path clip-path="url(#p26a8256953)" d="
M538.65 279.857
L538.65 288.066" style="fill:none;stroke:#4c72b0;stroke-dasharray:6.000000,6.000000;stroke-dashoffset:0.0;stroke-width:1.75;"/>
   </g>
   <g id="line2d_43">
    <path clip-path="url(#p26a8256953)" d="
M538.65 257.952
L538.65 227.064" style="fill:none;stroke:#4c72b0;stroke-dasharray:6.000000,6.000000;stroke-dashoffset:0.0;stroke-width:1.75;"/>
   </g>
   <g id="line2d_44">
    <path clip-path="url(#p26a8256953)" d="
M510.401 227.064
L566.899 227.064" style="fill:none;stroke:#000000;stroke-linecap:round;stroke-width:1.75;"/>
   </g>
   <g id="line2d_45">
    <path clip-path="url(#p26a8256953)" d="
M510.401 288.066
L566.899 288.066" style="fill:none;stroke:#000000;stroke-linecap:round;stroke-width:1.75;"/>
   </g>
   <g id="line2d_46">
    <path clip-path="url(#p26a8256953)" d="
M482.153 279.857
L595.148 279.857
L595.148 257.952
L482.153 257.952
L482.153 279.857" style="fill:none;stroke:#4c72b0;stroke-linecap:round;stroke-width:1.75;"/>
   </g>
   <g id="line2d_47">
    <path clip-path="url(#p26a8256953)" d="
M482.153 275.231
L595.148 275.231" style="fill:none;stroke:#c44e52;stroke-linecap:round;stroke-width:1.75;"/>
   </g>
   <g id="line2d_48"/>
   <g id="line2d_49"/>
   <g id="line2d_50">
    <path clip-path="url(#p26a8256953)" d="
M789.75 168.112
L789.75 179.343" style="fill:none;stroke:#4c72b0;stroke-dasharray:6.000000,6.000000;stroke-dashoffset:0.0;stroke-width:1.75;"/>
   </g>
   <g id="line2d_51">
    <path clip-path="url(#p26a8256953)" d="
M789.75 140.49
L789.75 125.405" style="fill:none;stroke:#4c72b0;stroke-dasharray:6.000000,6.000000;stroke-dashoffset:0.0;stroke-width:1.75;"/>
   </g>
   <g id="line2d_52">
    <path clip-path="url(#p26a8256953)" d="
M761.501 125.405
L817.999 125.405" style="fill:none;stroke:#000000;stroke-linecap:round;stroke-width:1.75;"/>
   </g>
   <g id="line2d_53">
    <path clip-path="url(#p26a8256953)" d="
M761.501 179.343
L817.999 179.343" style="fill:none;stroke:#000000;stroke-linecap:round;stroke-width:1.75;"/>
   </g>
   <g id="line2d_54">
    <path clip-path="url(#p26a8256953)" d="
M733.253 168.112
L846.248 168.112
L846.248 140.49
L733.253 140.49
L733.253 168.112" style="fill:none;stroke:#4c72b0;stroke-linecap:round;stroke-width:1.75;"/>
   </g>
   <g id="line2d_55">
    <path clip-path="url(#p26a8256953)" d="
M733.253 163.17
L846.248 163.17" style="fill:none;stroke:#c44e52;stroke-linecap:round;stroke-width:1.75;"/>
   </g>
   <g id="line2d_56">
    <defs>
     <path d="
M-3.5 0
L3.5 0
M0 3.5
L0 -3.5" id="mfe7611bb55"/>
    </defs>
    <g clip-path="url(#p26a8256953)">
     <use style="fill:#0000ff;" x="789.75" xlink:href="#mfe7611bb55" y="96.4636666775"/>
    </g>
   </g>
   <g id="line2d_57"/>
   <g id="line2d_58">
    <path clip-path="url(#p26a8256953)" d="
M1040.85 191.232
L1040.85 201.699" style="fill:none;stroke:#4c72b0;stroke-dasharray:6.000000,6.000000;stroke-dashoffset:0.0;stroke-width:1.75;"/>
   </g>
   <g id="line2d_59">
    <path clip-path="url(#p26a8256953)" d="
M1040.85 166.221
L1040.85 140.657" style="fill:none;stroke:#4c72b0;stroke-dasharray:6.000000,6.000000;stroke-dashoffset:0.0;stroke-width:1.75;"/>
   </g>
   <g id="line2d_60">
    <path clip-path="url(#p26a8256953)" d="
M1012.6 140.657
L1069.1 140.657" style="fill:none;stroke:#000000;stroke-linecap:round;stroke-width:1.75;"/>
   </g>
   <g id="line2d_61">
    <path clip-path="url(#p26a8256953)" d="
M1012.6 201.699
L1069.1 201.699" style="fill:none;stroke:#000000;stroke-linecap:round;stroke-width:1.75;"/>
   </g>
   <g id="line2d_62">
    <path clip-path="url(#p26a8256953)" d="
M984.352 191.232
L1097.35 191.232
L1097.35 166.221
L984.352 166.221
L984.352 191.232" style="fill:none;stroke:#4c72b0;stroke-linecap:round;stroke-width:1.75;"/>
   </g>
   <g id="line2d_63">
    <path clip-path="url(#p26a8256953)" d="
M984.352 183.758
L1097.35 183.758" style="fill:none;stroke:#c44e52;stroke-linecap:round;stroke-width:1.75;"/>
   </g>
   <g id="line2d_64"/>
   <g id="line2d_65"/>
   <g id="patch_3">
    <path d="
M162 86.4
L1166.4 86.4" style="fill:none;stroke:#cccccc;"/>
   </g>
   <g id="patch_4">
    <path d="
M1166.4 756
L1166.4 86.4" style="fill:none;stroke:#cccccc;"/>
   </g>
   <g id="patch_5">
    <path d="
M162 756
L1166.4 756" style="fill:none;stroke:#cccccc;"/>
   </g>
   <g id="patch_6">
    <path d="
M162 756
L162 86.4" style="fill:none;stroke:#cccccc;"/>
   </g>
   <g id="text_14">
    <!-- $khmer.ReadParser$: Total time parsing test-extra-large.fa -->
    <defs>
     <path d="
M17.3906 -1.125
Q11.0781 -1.125 7.4375 3.64062
Q3.8125 8.40625 3.8125 14.8906
Q3.8125 21.2969 7.125 28.1719
Q10.4531 35.0625 16.0938 39.625
Q21.7344 44.1875 28.2188 44.1875
Q31.2031 44.1875 33.5469 42.5781
Q35.8906 40.9688 37.2031 38.1875
Q38.3281 42.1875 41.6094 42.1875
Q42.875 42.1875 43.7188 41.4219
Q44.5781 40.6719 44.5781 39.4062
Q44.5781 39.1094 44.5469 38.9531
Q44.5312 38.8125 44.4844 38.625
L37.5 10.6875
Q36.8125 7.71875 36.8125 5.8125
Q36.8125 1.51562 39.7031 1.51562
Q42.8281 1.51562 44.4531 5.48438
Q46.0938 9.46875 47.2188 14.7031
Q47.4062 15.2812 48 15.2812
L49.2188 15.2812
Q49.6094 15.2812 49.8438 14.9375
Q50.0938 14.5938 50.0938 14.3125
Q48.3438 7.32812 46.2656 3.09375
Q44.1875 -1.125 39.5 -1.125
Q36.1406 -1.125 33.5469 0.84375
Q30.9531 2.82812 30.3281 6.10938
Q23.875 -1.125 17.3906 -1.125
M17.4844 1.51562
Q21.0938 1.51562 24.4844 4.21875
Q27.875 6.9375 30.3281 10.5938
Q30.4219 10.6875 30.4219 10.8906
L35.7969 32.625
L35.8906 32.9062
Q35.2969 36.4688 33.3125 39.0312
Q31.3438 41.6094 27.9844 41.6094
Q24.6094 41.6094 21.7031 38.8438
Q18.7969 36.0781 16.7969 32.3281
Q14.8438 28.3281 13.0625 21.3438
Q11.2812 14.3594 11.2812 10.5
Q11.2812 7.03125 12.7656 4.26562
Q14.2656 1.51562 17.4844 1.51562" id="Cmmi10-61"/>
     <path d="
M4.89062 31.3906
L31.2031 31.3906
L31.2031 23.3906
L4.89062 23.3906
z
" id="BitstreamVeraSans-Roman-2d"/>
     <path d="
M5.32812 1.8125
Q5.32812 2.39062 5.42188 2.6875
L19.9219 60.5
Q20.3125 62.2031 20.4062 63.1875
Q20.4062 64.7969 13.9219 64.7969
Q12.8906 64.7969 12.8906 66.1094
Q12.9375 66.3594 13.1094 66.9844
Q13.2812 67.625 13.5469 67.9688
Q13.8125 68.3125 14.3125 68.3125
L27.7812 69.3906
L28.0781 69.3906
Q28.0781 69.2812 28.4219 69.1094
Q28.7656 68.9531 28.8125 68.8906
Q29 68.4062 29 68.1094
L18.5 26.3125
Q22.125 27.8281 27.6094 33.5156
Q33.1094 39.2031 36.2031 41.6875
Q39.3125 44.1875 44 44.1875
Q46.7812 44.1875 48.7344 42.2812
Q50.6875 40.375 50.6875 37.5938
Q50.6875 35.8438 49.9531 34.3438
Q49.2188 32.8594 47.8906 31.9219
Q46.5781 31 44.8281 31
Q43.2188 31 42.1094 32
Q41.0156 33.0156 41.0156 34.625
Q41.0156 37.0156 42.7031 38.6406
Q44.3906 40.2812 46.7812 40.2812
Q45.7969 41.6094 43.7969 41.6094
Q40.8281 41.6094 38.0625 39.8906
Q35.2969 38.1875 32.0938 34.9844
Q28.9062 31.7812 26.2656 29.125
Q23.6406 26.4688 21.3906 25.0938
Q27.2969 24.4219 31.6406 22
Q35.9844 19.5781 35.9844 14.5938
Q35.9844 13.5781 35.5938 12.0156
Q34.7188 8.25 34.7188 6
Q34.7188 1.51562 37.7969 1.51562
Q41.4062 1.51562 43.2812 5.46875
Q45.1719 9.42188 46.3906 14.7031
Q46.5781 15.2812 47.2188 15.2812
L48.3906 15.2812
Q48.7812 15.2812 49.0469 15.0312
Q49.3125 14.7969 49.3125 14.4062
Q49.3125 14.3125 49.2188 14.1094
Q45.4531 -1.125 37.5938 -1.125
Q34.7656 -1.125 32.5938 0.1875
Q30.4219 1.51562 29.25 3.78125
Q28.0781 6.0625 28.0781 8.89062
Q28.0781 10.5 28.5156 12.2031
Q28.8125 13.375 28.8125 14.4062
Q28.8125 18.2656 25.3906 20.2656
Q21.9688 22.2656 17.5781 22.7031
L12.5 2.29688
Q12.1094 0.78125 10.9844 -0.171875
Q9.85938 -1.125 8.40625 -1.125
Q7.125 -1.125 6.21875 -0.265625
Q5.32812 0.59375 5.32812 1.8125" id="Cmmi10-6b"/>
     <path d="
M54.8906 33.0156
L54.8906 0
L45.9062 0
L45.9062 32.7188
Q45.9062 40.4844 42.875 44.3281
Q39.8438 48.1875 33.7969 48.1875
Q26.5156 48.1875 22.3125 43.5469
Q18.1094 38.9219 18.1094 30.9062
L18.1094 0
L9.07812 0
L9.07812 54.6875
L18.1094 54.6875
L18.1094 46.1875
Q21.3438 51.125 25.7031 53.5625
Q30.0781 56 35.7969 56
Q45.2188 56 50.0469 50.1719
Q54.8906 44.3438 54.8906 33.0156" id="BitstreamVeraSans-Roman-6e"/>
     <path d="
M7.71875 1.70312
Q7.71875 2.29688 7.8125 2.59375
L15.2812 32.4219
Q16.0156 35.2031 16.0156 37.3125
Q16.0156 41.6094 13.0938 41.6094
Q9.96875 41.6094 8.45312 37.8594
Q6.9375 34.125 5.51562 28.4219
Q5.51562 28.125 5.21875 27.9531
Q4.9375 27.7812 4.6875 27.7812
L3.51562 27.7812
Q3.17188 27.7812 2.92188 28.1406
Q2.6875 28.5156 2.6875 28.8125
Q3.76562 33.1562 4.76562 36.1719
Q5.76562 39.2031 7.89062 41.6875
Q10.0156 44.1875 13.1875 44.1875
Q16.9375 44.1875 19.8125 41.8125
Q22.7031 39.4531 22.7031 35.7969
Q25.6875 39.7031 29.6875 41.9375
Q33.6875 44.1875 38.1875 44.1875
Q42.9219 44.1875 46.3594 41.7656
Q49.8125 39.3594 49.8125 34.9062
Q52.875 39.2656 57 41.7188
Q61.1406 44.1875 66.0156 44.1875
Q71.1875 44.1875 74.3281 41.375
Q77.4844 38.5781 77.4844 33.4062
Q77.4844 29.2969 75.6562 23.4844
Q73.8281 17.6719 71.0938 10.5
Q69.6719 7.03125 69.6719 4.5
Q69.6719 1.51562 72.0156 1.51562
Q75.9219 1.51562 78.5156 5.70312
Q81.1094 9.90625 82.1719 14.7031
Q82.4688 15.2812 83.0156 15.2812
L84.1875 15.2812
Q84.5781 15.2812 84.8438 15.0156
Q85.1094 14.75 85.1094 14.4062
Q85.1094 14.3125 85.0156 14.1094
Q83.6406 8.45312 80.25 3.65625
Q76.8594 -1.125 71.7812 -1.125
Q68.2656 -1.125 65.7656 1.29688
Q63.2812 3.71875 63.2812 7.17188
Q63.2812 8.9375 64.1094 11.0781
Q66.9375 18.6094 68.8125 24.5156
Q70.7031 30.4219 70.7031 34.9062
Q70.7031 37.7031 69.5781 39.6562
Q68.4531 41.6094 65.8281 41.6094
Q60.3594 41.6094 56.3438 38.25
Q52.3438 34.9062 49.4219 29.3906
Q49.2188 28.4219 49.125 27.875
L42.6719 2.20312
Q42.3281 0.828125 41.125 -0.140625
Q39.9375 -1.125 38.4844 -1.125
Q37.3125 -1.125 36.4062 -0.34375
Q35.5 0.4375 35.5 1.70312
Q35.5 2.29688 35.5938 2.59375
L42 28.0781
Q43.0156 32.1719 43.0156 34.9062
Q43.0156 37.7031 41.8594 39.6562
Q40.7188 41.6094 37.9844 41.6094
Q34.3281 41.6094 31.25 39.9844
Q28.1719 38.375 25.875 35.7188
Q23.5781 33.0625 21.6875 29.3906
L14.8906 2.20312
Q14.5469 0.828125 13.3438 -0.140625
Q12.1562 -1.125 10.6875 -1.125
Q9.46875 -1.125 8.59375 -0.34375
Q7.71875 0.4375 7.71875 1.70312" id="Cmmi10-6d"/>
     <path d="
M4.89062 0
Q3.90625 0 3.90625 1.3125
Q3.95312 1.5625 4.09375 2.17188
Q4.25 2.78125 4.51562 3.14062
Q4.78125 3.51562 5.17188 3.51562
Q11.2812 3.51562 13.7188 4.20312
Q14.9844 4.64062 15.5781 6.89062
L29.2969 61.8125
Q29.5 62.7969 29.5 63.1875
Q29.5 64.2656 28.3281 64.4062
Q26.4219 64.7969 21.0938 64.7969
Q20.125 64.7969 20.125 66.1094
Q20.1719 66.3594 20.3125 66.9688
Q20.4531 67.5781 20.7188 67.9375
Q21 68.3125 21.3906 68.3125
L55.9062 68.3125
Q60.6406 68.3125 65.0781 66.625
Q69.5312 64.9375 72.3594 61.4688
Q75.2031 58.0156 75.2031 53.0781
Q75.2031 46.7344 70.7344 41.75
Q66.2656 36.7656 59.5938 33.9844
Q52.9375 31.2031 46.6875 31.2031
L30.4219 31.2031
L24.3125 6.5
Q24.125 5.51562 24.125 5.07812
Q24.125 4.6875 24.2344 4.42188
Q24.3594 4.15625 24.5781 4.07812
Q24.8125 4 25.2969 3.90625
Q27.2031 3.51562 32.5156 3.51562
Q33.5 3.51562 33.5 2.20312
Q33.1562 0.78125 32.9531 0.390625
Q32.7656 0 31.7812 0
z

M30.9062 34.1875
L44.9219 34.1875
Q54.6406 34.1875 59.7188 39.4062
Q62.3125 42 63.9375 46.875
Q65.5781 51.7656 65.5781 55.7188
Q65.5781 60.6406 61.8125 62.7188
Q58.0625 64.7969 52.4844 64.7969
L42.9219 64.7969
Q40.1875 64.7969 39.2969 64.3281
Q38.4219 63.875 37.7031 61.375
z
" id="Cmmi10-50"/>
     <path d="
M4.89062 0
Q3.90625 0 3.90625 1.3125
Q3.95312 1.5625 4.09375 2.17188
Q4.25 2.78125 4.51562 3.14062
Q4.78125 3.51562 5.17188 3.51562
Q11.2812 3.51562 13.7188 4.20312
Q14.9844 4.64062 15.5781 6.89062
L29.2969 61.8125
Q29.5 62.7969 29.5 63.1875
Q29.5 64.2656 28.3281 64.4062
Q26.4219 64.7969 21.0938 64.7969
Q20.125 64.7969 20.125 66.1094
Q20.1719 66.3594 20.3125 66.9688
Q20.4531 67.5781 20.7188 67.9375
Q21 68.3125 21.3906 68.3125
L51.7031 68.3125
Q55.3281 68.3125 59.2344 67.4844
Q63.1406 66.6562 66.4062 64.875
Q69.6719 63.0938 71.7656 60.125
Q73.875 57.1719 73.875 53.2188
Q73.875 48.1875 70.5469 44.2344
Q67.2344 40.2812 62.1562 37.625
Q57.0781 34.9688 52.2969 33.8906
Q56.2031 32.4688 58.6875 29.3594
Q61.1875 26.2656 61.1875 22.2188
Q61.1875 21.6875 61.1562 21.4062
Q61.1406 21.1406 61.0781 20.7969
L60.2969 11.9219
Q60.2031 9.96875 60.1094 8.59375
Q60.0156 7.23438 60.0156 6.39062
Q60.0156 3.65625 60.8125 2.01562
Q61.625 0.390625 64.0156 0.390625
Q67.1406 0.390625 69.5 3.29688
Q71.875 6.20312 72.6094 9.625
Q73.0469 10.5 73.5781 10.5
L74.5156 10.5
Q75.4844 10.5 75.4844 9.1875
Q74.75 6.29688 73.1562 3.70312
Q71.5781 1.125 69.1562 -0.53125
Q66.75 -2.20312 63.9219 -2.20312
Q58.0625 -2.20312 53.9375 0.40625
Q49.8125 3.03125 49.8125 8.59375
Q49.8125 10.6875 50.2031 12.3125
L52.3906 21.1875
Q52.7812 22.4062 52.7812 24.0312
Q52.7812 28.1719 49.9688 30.5312
Q47.1719 32.9062 42.9219 32.9062
L30.6094 32.9062
L24.0312 6.5
Q23.7812 5.67188 23.7812 5.07812
Q23.7812 4.04688 25 3.90625
Q26.9062 3.51562 32.1719 3.51562
Q33.2031 3.51562 33.2031 2.20312
Q32.8594 0.78125 32.6562 0.390625
Q32.4688 0 31.5 0
z

M31.2031 35.5
L42.2812 35.5
Q53.1719 35.5 58.6875 41.0156
Q61.2344 43.5625 62.7188 47.4844
Q64.2031 51.4219 64.2031 55.3281
Q64.2031 59.0312 62.0312 61.125
Q59.8594 63.2344 56.6562 64.0156
Q53.4688 64.7969 49.6094 64.7969
L42.9219 64.7969
Q40.1875 64.7969 39.2969 64.3281
Q38.4219 63.875 37.7031 61.375
z
" id="Cmmi10-52"/>
     <path d="
M30.6094 48.3906
Q23.3906 48.3906 19.1875 42.75
Q14.9844 37.1094 14.9844 27.2969
Q14.9844 17.4844 19.1562 11.8438
Q23.3438 6.20312 30.6094 6.20312
Q37.7969 6.20312 41.9844 11.8594
Q46.1875 17.5312 46.1875 27.2969
Q46.1875 37.0156 41.9844 42.7031
Q37.7969 48.3906 30.6094 48.3906
M30.6094 56
Q42.3281 56 49.0156 48.375
Q55.7188 40.7656 55.7188 27.2969
Q55.7188 13.875 49.0156 6.21875
Q42.3281 -1.42188 30.6094 -1.42188
Q18.8438 -1.42188 12.1719 6.21875
Q5.51562 13.875 5.51562 27.2969
Q5.51562 40.7656 12.1719 48.375
Q18.8438 56 30.6094 56" id="BitstreamVeraSans-Roman-6f"/>
     <path d="
M9.42188 75.9844
L18.4062 75.9844
L18.4062 0
L9.42188 0
z
" id="BitstreamVeraSans-Roman-6c"/>
     <path d="
M7.71875 1.70312
Q7.71875 2.29688 7.8125 2.59375
L15.2812 32.4219
Q16.0156 35.2031 16.0156 37.3125
Q16.0156 41.6094 13.0938 41.6094
Q9.96875 41.6094 8.45312 37.8594
Q6.9375 34.125 5.51562 28.4219
Q5.51562 28.125 5.21875 27.9531
Q4.9375 27.7812 4.6875 27.7812
L3.51562 27.7812
Q3.17188 27.7812 2.92188 28.1406
Q2.6875 28.5156 2.6875 28.8125
Q3.76562 33.1562 4.76562 36.1719
Q5.76562 39.2031 7.89062 41.6875
Q10.0156 44.1875 13.1875 44.1875
Q16.6562 44.1875 19.2656 42.1875
Q21.875 40.1875 22.5156 36.9219
Q25.0469 40.2344 28.2969 42.2031
Q31.5469 44.1875 35.4062 44.1875
Q38.5781 44.1875 40.9844 42.3281
Q43.4062 40.4844 43.4062 37.3125
Q43.4062 34.7656 41.8125 32.875
Q40.2344 31 37.5938 31
Q35.9844 31 34.8906 32
Q33.7969 33.0156 33.7969 34.625
Q33.7969 36.8125 35.4062 38.5469
Q37.0156 40.2812 39.1094 40.2812
Q37.5 41.6094 35.2031 41.6094
Q30.9062 41.6094 27.7344 38.5469
Q24.5625 35.5 22.0156 30.8125
L14.8906 2.20312
Q14.5469 0.828125 13.3438 -0.140625
Q12.1562 -1.125 10.6875 -1.125
Q9.46875 -1.125 8.59375 -0.34375
Q7.71875 0.4375 7.71875 1.70312" id="Cmmi10-72"/>
     <path d="
M8.6875 6.10938
Q11.375 1.51562 19.4844 1.51562
Q23 1.51562 26.1719 2.70312
Q29.3438 3.90625 31.4219 6.29688
Q33.5 8.6875 33.5 12.1094
Q33.5 14.7031 31.6406 16.3594
Q29.7812 18.0156 27.0938 18.6094
L21.6875 19.6719
Q17.9688 20.6094 15.5781 23.1406
Q13.1875 25.6875 13.1875 29.2969
Q13.1875 33.7344 15.5938 37.1562
Q18.0156 40.5781 21.9688 42.375
Q25.9219 44.1875 30.1719 44.1875
Q34.7188 44.1875 38.2969 42.0156
Q41.8906 39.8438 41.8906 35.5938
Q41.8906 33.2969 40.5938 31.5312
Q39.3125 29.7812 37.0156 29.7812
Q35.6875 29.7812 34.7344 30.6406
Q33.7969 31.5 33.7969 32.8125
Q33.7969 33.9844 34.4531 35.0781
Q35.1094 36.1875 36.2031 36.8438
Q37.3125 37.5 38.4844 37.5
Q37.5938 39.6562 35.1719 40.625
Q32.7656 41.6094 29.9844 41.6094
Q27.4375 41.6094 24.8906 40.5781
Q22.3594 39.5469 20.8125 37.5625
Q19.2812 35.5938 19.2812 32.9062
Q19.2812 31.1094 20.5469 29.7344
Q21.8281 28.375 23.6875 27.7812
L29.5 26.6094
Q32.2812 26.0312 34.5938 24.5312
Q36.9219 23.0469 38.25 20.7656
Q39.5938 18.5 39.5938 15.5781
Q39.5938 11.8594 37.5156 8.25
Q35.4531 4.64062 32.4219 2.48438
Q27.0938 -1.125 19.3906 -1.125
Q14.0625 -1.125 9.60938 1.3125
Q5.17188 3.76562 5.17188 8.59375
Q5.17188 11.3281 6.75 13.3438
Q8.34375 15.375 11.0781 15.375
Q12.7031 15.375 13.7969 14.3906
Q14.8906 13.4219 14.8906 11.8125
Q14.8906 9.51562 13.1719 7.8125
Q11.4688 6.10938 9.1875 6.10938
z
" id="Cmmi10-73"/>
     <path d="
M11.7188 12.4062
L22.0156 12.4062
L22.0156 0
L11.7188 0
z

M11.7188 51.7031
L22.0156 51.7031
L22.0156 39.3125
L11.7188 39.3125
z
" id="BitstreamVeraSans-Roman-3a"/>
     <path d="
M20.125 -1.125
Q15.3281 -1.125 11.7344 1.35938
Q8.15625 3.85938 6.26562 8.07812
Q4.39062 12.3125 4.39062 17
Q4.39062 24.125 7.98438 30.3906
Q11.5781 36.6719 17.7188 40.4219
Q23.875 44.1875 30.9062 44.1875
Q35.2031 44.1875 38.4062 41.9688
Q41.6094 39.75 41.6094 35.5938
Q41.6094 29.8281 37.0156 27.0156
Q32.4219 24.2188 26.6562 23.5625
Q20.9062 22.9062 13.9219 22.9062
L13.625 22.9062
Q12.0156 16.9375 12.0156 12.7031
Q12.0156 8.25 14.0625 4.875
Q16.1094 1.51562 20.3125 1.51562
Q26.2656 1.51562 31.75 4.25
Q37.25 6.98438 40.7188 11.8125
Q41.0156 12.1094 41.5 12.1094
Q42 12.1094 42.5 11.5469
Q43.0156 10.9844 43.0156 10.5
Q43.0156 10.1094 42.8281 9.90625
Q39.1562 4.78125 32.9531 1.82812
Q26.7656 -1.125 20.125 -1.125
M14.2031 25.4844
Q20.0156 25.4844 24.9531 26.0156
Q29.8906 26.5625 33.8906 28.7344
Q37.8906 30.9062 37.8906 35.5
Q37.8906 37.3594 36.8594 38.75
Q35.8438 40.1406 34.2031 40.875
Q32.5625 41.6094 30.8125 41.6094
Q26.5625 41.6094 23.1719 39.3125
Q19.7812 37.0156 17.5781 33.3281
Q15.375 29.6406 14.2031 25.4844" id="Cmmi10-65"/>
     <path d="
M17.3906 -1.125
Q11.0781 -1.125 7.4375 3.64062
Q3.8125 8.40625 3.8125 14.8906
Q3.8125 21.2969 7.125 28.1719
Q10.4531 35.0625 16.0938 39.625
Q21.7344 44.1875 28.2188 44.1875
Q31.1562 44.1875 33.5156 42.5469
Q35.8906 40.9219 37.2031 38.1875
L42.8281 60.5
Q43.2188 62.2031 43.3125 63.1875
Q43.3125 64.7969 36.8125 64.7969
Q35.7969 64.7969 35.7969 66.1094
Q35.8438 66.3594 36.0156 66.9844
Q36.1875 67.625 36.4531 67.9688
Q36.7188 68.3125 37.2031 68.3125
L50.6875 69.3906
Q51.9062 69.3906 51.9062 68.1094
L37.5 10.5938
Q36.8125 8.9375 36.8125 5.8125
Q36.8125 1.51562 39.7031 1.51562
Q42.8281 1.51562 44.4531 5.48438
Q46.0938 9.46875 47.2188 14.7031
Q47.4062 15.2812 48 15.2812
L49.2188 15.2812
Q49.6094 15.2812 49.8438 14.9375
Q50.0938 14.5938 50.0938 14.3125
Q48.3438 7.32812 46.2656 3.09375
Q44.1875 -1.125 39.5 -1.125
Q36.1406 -1.125 33.5469 0.84375
Q30.9531 2.82812 30.3281 6.10938
Q23.875 -1.125 17.3906 -1.125
M17.4844 1.51562
Q21.0938 1.51562 24.4844 4.21875
Q27.875 6.9375 30.3281 10.5938
Q30.4219 10.6875 30.4219 10.9844
L35.8906 33.0156
Q35.2969 36.5312 33.2969 39.0625
Q31.2969 41.6094 27.9844 41.6094
Q24.6094 41.6094 21.7031 38.8438
Q18.7969 36.0781 16.7969 32.3281
Q14.8438 28.3281 13.0625 21.3438
Q11.2812 14.3594 11.2812 10.5
Q11.2812 7.03125 12.7656 4.26562
Q14.2656 1.51562 17.4844 1.51562" id="Cmmi10-64"/>
     <path d="
M5.32812 1.8125
Q5.32812 2.39062 5.42188 2.6875
L19.9219 60.5
Q20.3125 62.2031 20.4062 63.1875
Q20.4062 64.7969 13.9219 64.7969
Q12.8906 64.7969 12.8906 66.1094
Q12.9375 66.3594 13.1094 66.9844
Q13.2812 67.625 13.5469 67.9688
Q13.8125 68.3125 14.3125 68.3125
L27.7812 69.3906
L28.0781 69.3906
Q28.0781 69.2812 28.4219 69.1094
Q28.7656 68.9531 28.8125 68.8906
Q29 68.4062 29 68.1094
L21.1875 36.9219
Q27.3438 44.1875 35.7969 44.1875
Q39.3125 44.1875 41.875 42.9688
Q44.4375 41.75 45.875 39.2812
Q47.3125 36.8125 47.3125 33.4062
Q47.3125 29.2969 45.4844 23.4844
Q43.6562 17.6719 40.9219 10.5
Q39.5 7.23438 39.5 4.5
Q39.5 1.51562 41.7969 1.51562
Q45.7031 1.51562 48.3125 5.6875
Q50.9219 9.85938 52 14.7031
Q52.2031 15.2812 52.7812 15.2812
L54 15.2812
Q54.3906 15.2812 54.6406 15.0156
Q54.8906 14.75 54.8906 14.4062
Q54.8906 14.3125 54.7812 14.1094
Q53.9062 10.5 52.1719 7
Q50.4375 3.51562 47.7969 1.1875
Q45.1719 -1.125 41.6094 -1.125
Q38.0938 -1.125 35.5938 1.29688
Q33.1094 3.71875 33.1094 7.17188
Q33.1094 9.03125 33.8906 11.0781
Q36.7188 18.6094 38.5938 24.5156
Q40.4844 30.4219 40.4844 34.9062
Q40.4844 37.7969 39.3594 39.7031
Q38.2344 41.6094 35.5938 41.6094
Q30.2188 41.6094 26.2188 38.3125
Q22.2188 35.0156 19.2812 29.5938
L12.5 2.29688
Q12.1094 0.78125 10.9844 -0.171875
Q9.85938 -1.125 8.40625 -1.125
Q7.125 -1.125 6.21875 -0.265625
Q5.32812 0.59375 5.32812 1.8125" id="Cmmi10-68"/>
     <path d="
M18.3125 70.2188
L18.3125 54.6875
L36.8125 54.6875
L36.8125 47.7031
L18.3125 47.7031
L18.3125 18.0156
Q18.3125 11.3281 20.1406 9.42188
Q21.9688 7.51562 27.5938 7.51562
L36.8125 7.51562
L36.8125 0
L27.5938 0
Q17.1875 0 13.2344 3.875
Q9.28125 7.76562 9.28125 18.0156
L9.28125 47.7031
L2.6875 47.7031
L2.6875 54.6875
L9.28125 54.6875
L9.28125 70.2188
z
" id="BitstreamVeraSans-Roman-74"/>
     <path d="
M37.1094 75.9844
L37.1094 68.5
L28.5156 68.5
Q23.6875 68.5 21.7969 66.5469
Q19.9219 64.5938 19.9219 59.5156
L19.9219 54.6875
L34.7188 54.6875
L34.7188 47.7031
L19.9219 47.7031
L19.9219 0
L10.8906 0
L10.8906 47.7031
L2.29688 47.7031
L2.29688 54.6875
L10.8906 54.6875
L10.8906 58.5
Q10.8906 67.625 15.1406 71.7969
Q19.3906 75.9844 28.6094 75.9844
z
" id="BitstreamVeraSans-Roman-66"/>
     <path d="
M45.4062 27.9844
Q45.4062 37.75 41.375 43.1094
Q37.3594 48.4844 30.0781 48.4844
Q22.8594 48.4844 18.8281 43.1094
Q14.7969 37.75 14.7969 27.9844
Q14.7969 18.2656 18.8281 12.8906
Q22.8594 7.51562 30.0781 7.51562
Q37.3594 7.51562 41.375 12.8906
Q45.4062 18.2656 45.4062 27.9844
M54.3906 6.78125
Q54.3906 -7.17188 48.1875 -13.9844
Q42 -20.7969 29.2031 -20.7969
Q24.4688 -20.7969 20.2656 -20.0938
Q16.0625 -19.3906 12.1094 -17.9219
L12.1094 -9.1875
Q16.0625 -11.3281 19.9219 -12.3438
Q23.7812 -13.375 27.7812 -13.375
Q36.625 -13.375 41.0156 -8.76562
Q45.4062 -4.15625 45.4062 5.17188
L45.4062 9.625
Q42.625 4.78125 38.2812 2.39062
Q33.9375 0 27.875 0
Q17.8281 0 11.6719 7.65625
Q5.51562 15.3281 5.51562 27.9844
Q5.51562 40.6719 11.6719 48.3281
Q17.8281 56 27.875 56
Q33.9375 56 38.2812 53.6094
Q42.625 51.2188 45.4062 46.3906
L45.4062 54.6875
L54.3906 54.6875
z
" id="BitstreamVeraSans-Roman-67"/>
     <path d="
M18.1094 8.20312
L18.1094 -20.7969
L9.07812 -20.7969
L9.07812 54.6875
L18.1094 54.6875
L18.1094 46.3906
Q20.9531 51.2656 25.2656 53.625
Q29.5938 56 35.5938 56
Q45.5625 56 51.7812 48.0938
Q58.0156 40.1875 58.0156 27.2969
Q58.0156 14.4062 51.7812 6.48438
Q45.5625 -1.42188 35.5938 -1.42188
Q29.5938 -1.42188 25.2656 0.953125
Q20.9531 3.32812 18.1094 8.20312
M48.6875 27.2969
Q48.6875 37.2031 44.6094 42.8438
Q40.5312 48.4844 33.4062 48.4844
Q26.2656 48.4844 22.1875 42.8438
Q18.1094 37.2031 18.1094 27.2969
Q18.1094 17.3906 22.1875 11.75
Q26.2656 6.10938 33.4062 6.10938
Q40.5312 6.10938 44.6094 11.75
Q48.6875 17.3906 48.6875 27.2969" id="BitstreamVeraSans-Roman-70"/>
     <path d="
M8.40625 5.51562
Q8.40625 7.76562 10.0625 9.375
Q11.7188 10.9844 13.9219 10.9844
Q15.2812 10.9844 16.5938 10.25
Q17.9219 9.51562 18.6562 8.20312
Q19.3906 6.89062 19.3906 5.51562
Q19.3906 3.32812 17.7656 1.65625
Q16.1562 0 13.9219 0
Q11.7188 0 10.0625 1.65625
Q8.40625 3.32812 8.40625 5.51562" id="Cmmi10-3a"/>
    </defs>
    <g style="fill:#262626;" transform="translate(332.28 81.4)scale(0.24 -0.24)">
     <use transform="translate(0.0 0.015625)" xlink:href="#Cmmi10-6b"/>
     <use transform="translate(52.001953125 0.015625)" xlink:href="#Cmmi10-68"/>
     <use transform="translate(109.619140625 0.015625)" xlink:href="#Cmmi10-6d"/>
     <use transform="translate(197.412109375 0.015625)" xlink:href="#Cmmi10-65"/>
     <use transform="translate(243.896484375 0.015625)" xlink:href="#Cmmi10-72"/>
     <use transform="translate(289.013671875 0.015625)" xlink:href="#Cmmi10-3a"/>
     <use transform="translate(317.556640625 0.015625)" xlink:href="#Cmmi10-52"/>
     <use transform="translate(393.435546875 0.015625)" xlink:href="#Cmmi10-65"/>
     <use transform="translate(439.919921875 0.015625)" xlink:href="#Cmmi10-61"/>
     <use transform="translate(492.703125 0.015625)" xlink:href="#Cmmi10-64"/>
     <use transform="translate(544.705078125 0.015625)" xlink:href="#Cmmi10-50"/>
     <use transform="translate(608.9140625 0.015625)" xlink:href="#Cmmi10-61"/>
     <use transform="translate(661.697265625 0.015625)" xlink:href="#Cmmi10-72"/>
     <use transform="translate(706.814453125 0.015625)" xlink:href="#Cmmi10-73"/>
     <use transform="translate(753.591796875 0.015625)" xlink:href="#Cmmi10-65"/>
     <use transform="translate(800.076171875 0.015625)" xlink:href="#Cmmi10-72"/>
     <use transform="translate(845.193359375 0.015625)" xlink:href="#BitstreamVeraSans-Roman-3a"/>
     <use transform="translate(878.884765625 0.015625)" xlink:href="#BitstreamVeraSans-Roman-20"/>
     <use transform="translate(910.671875 0.015625)" xlink:href="#BitstreamVeraSans-Roman-54"/>
     <use transform="translate(971.755859375 0.015625)" xlink:href="#BitstreamVeraSans-Roman-6f"/>
     <use transform="translate(1032.9375 0.015625)" xlink:href="#BitstreamVeraSans-Roman-74"/>
     <use transform="translate(1072.14648438 0.015625)" xlink:href="#BitstreamVeraSans-Roman-61"/>
     <use transform="translate(1133.42578125 0.015625)" xlink:href="#BitstreamVeraSans-Roman-6c"/>
     <use transform="translate(1161.20898438 0.015625)" xlink:href="#BitstreamVeraSans-Roman-20"/>
     <use transform="translate(1192.99609375 0.015625)" xlink:href="#BitstreamVeraSans-Roman-74"/>
     <use transform="translate(1232.20507812 0.015625)" xlink:href="#BitstreamVeraSans-Roman-69"/>
     <use transform="translate(1259.98828125 0.015625)" xlink:href="#BitstreamVeraSans-Roman-6d"/>
     <use transform="translate(1357.40039062 0.015625)" xlink:href="#BitstreamVeraSans-Roman-65"/>
     <use transform="translate(1418.92382812 0.015625)" xlink:href="#BitstreamVeraSans-Roman-20"/>
     <use transform="translate(1450.7109375 0.015625)" xlink:href="#BitstreamVeraSans-Roman-70"/>
     <use transform="translate(1514.1875 0.015625)" xlink:href="#BitstreamVeraSans-Roman-61"/>
     <use transform="translate(1575.46679688 0.015625)" xlink:href="#BitstreamVeraSans-Roman-72"/>
     <use transform="translate(1616.58007812 0.015625)" xlink:href="#BitstreamVeraSans-Roman-73"/>
     <use transform="translate(1668.6796875 0.015625)" xlink:href="#BitstreamVeraSans-Roman-69"/>
     <use transform="translate(1696.46289062 0.015625)" xlink:href="#BitstreamVeraSans-Roman-6e"/>
     <use transform="translate(1759.84179688 0.015625)" xlink:href="#BitstreamVeraSans-Roman-67"/>
     <use transform="translate(1823.31835938 0.015625)" xlink:href="#BitstreamVeraSans-Roman-20"/>
     <use transform="translate(1855.10546875 0.015625)" xlink:href="#BitstreamVeraSans-Roman-74"/>
     <use transform="translate(1894.31445312 0.015625)" xlink:href="#BitstreamVeraSans-Roman-65"/>
     <use transform="translate(1955.83789062 0.015625)" xlink:href="#BitstreamVeraSans-Roman-73"/>
     <use transform="translate(2007.9375 0.015625)" xlink:href="#BitstreamVeraSans-Roman-74"/>
     <use transform="translate(2047.14648438 0.015625)" xlink:href="#BitstreamVeraSans-Roman-2d"/>
     <use transform="translate(2083.23046875 0.015625)" xlink:href="#BitstreamVeraSans-Roman-65"/>
     <use transform="translate(2144.75390625 0.015625)" xlink:href="#BitstreamVeraSans-Roman-78"/>
     <use transform="translate(2203.93359375 0.015625)" xlink:href="#BitstreamVeraSans-Roman-74"/>
     <use transform="translate(2243.14257812 0.015625)" xlink:href="#BitstreamVeraSans-Roman-72"/>
     <use transform="translate(2284.25585938 0.015625)" xlink:href="#BitstreamVeraSans-Roman-61"/>
     <use transform="translate(2345.53515625 0.015625)" xlink:href="#BitstreamVeraSans-Roman-2d"/>
     <use transform="translate(2381.61914062 0.015625)" xlink:href="#BitstreamVeraSans-Roman-6c"/>
     <use transform="translate(2409.40234375 0.015625)" xlink:href="#BitstreamVeraSans-Roman-61"/>
     <use transform="translate(2470.68164062 0.015625)" xlink:href="#BitstreamVeraSans-Roman-72"/>
     <use transform="translate(2511.79492188 0.015625)" xlink:href="#BitstreamVeraSans-Roman-67"/>
     <use transform="translate(2575.27148438 0.015625)" xlink:href="#BitstreamVeraSans-Roman-65"/>
     <use transform="translate(2636.79492188 0.015625)" xlink:href="#BitstreamVeraSans-Roman-2e"/>
     <use transform="translate(2668.58203125 0.015625)" xlink:href="#BitstreamVeraSans-Roman-66"/>
     <use transform="translate(2703.78710938 0.015625)" xlink:href="#BitstreamVeraSans-Roman-61"/>
    </g>
   </g>
  </g>
 </g>
 <defs>
  <clipPath id="p26a8256953">
   <rect height="669.6" width="1004.4" x="162.0" y="86.4"/>
  </clipPath>
 </defs>
</svg>
